<?xml version="1.0" encoding="UTF-8" standalone="no"?>
<svg
   width="100%"
   height="100%"
   viewBox="0 0 14044 9934"
   version="1.1"
   xml:space="preserve"
   style="fill-rule:evenodd;clip-rule:evenodd;stroke-linecap:round;stroke-linejoin:round;stroke-miterlimit:1.5;"
   id="svg243"
   sodipodi:docname="Dualshock.svg"
   inkscape:version="1.1 (c68e22c387, 2021-05-23)"
   xmlns:inkscape="http://www.inkscape.org/namespaces/inkscape"
   xmlns:sodipodi="http://sodipodi.sourceforge.net/DTD/sodipodi-0.dtd"
   xmlns="http://www.w3.org/2000/svg"
   xmlns:svg="http://www.w3.org/2000/svg"
   xmlns:serif="http://www.serif.com/"><defs
     id="defs247" /><sodipodi:namedview
     id="namedview245"
     pagecolor="#ffffff"
     bordercolor="#999999"
     borderopacity="1"
     inkscape:pageshadow="0"
     inkscape:pageopacity="0"
     inkscape:pagecheckerboard="0"
     showgrid="false"
     inkscape:zoom="0.063317898"
     inkscape:cx="7028.0286"
     inkscape:cy="4967"
     inkscape:window-width="1920"
     inkscape:window-height="1057"
     inkscape:window-x="1912"
     inkscape:window-y="-8"
     inkscape:window-maximized="1"
     inkscape:current-layer="svg243" /><g
     id="g381"><path
       d="M10753.3,8451c-389.372,-507.74 -389.331,-507.607 -934.976,-1289c-75.558,560.925 -556.692,994 -1138.18,994c-633.875,0 -1148.5,-514.626 -1148.5,-1148.5c-0,-41.211 2.175,-81.918 6.417,-122.013c0.017,-0.161 0.034,-0.323 0.052,-0.487l-1032.94,0c4.276,40.252 6.469,81.122 6.469,122.5c-0,633.874 -514.626,1148.5 -1148.5,1148.5c-581.486,0 -1062.62,-433.075 -1138.18,-994c-535.503,767.622 -535.459,768.031 -934.976,1289c-546.654,712.835 -1177.32,754.202 -1824,323c-646.678,-431.202 -497.114,-1201.6 -456,-1508c41.114,-306.398 188.618,-1499.22 238,-1781c49.382,-281.782 100.637,-1065.49 193,-1437c92.363,-371.511 158.273,-1152.75 553,-1607c394.727,-454.247 473.66,-678.27 584,-954c110.34,-275.73 33.857,-605 1146,-605c1112.14,0 831.23,848.344 1012,1019c346.272,166.412 398,417 398,417l3775.31,0c0,0 51.728,-250.588 398,-417c180.77,-170.656 -100.142,-1019 1012,-1019c1112.14,0 1035.66,329.27 1146,605c110.34,275.73 189.273,499.753 584,954c394.727,454.247 460.638,1235.49 553,1607c92.363,371.511 143.618,1155.22 193,1437c49.382,281.782 196.886,1474.6 238,1781c41.114,306.398 190.678,1076.8 -456,1508c-646.678,431.202 -1277.35,389.835 -1824,-323Z"
       style="fill:#b3b3b3;stroke:#000;stroke-width:62.5px;"
       id="path2" /><g
       id="Controle"><g
         id="Camada1"><g
           id="D-Pad"><g
             id="Botões"><path
               d="M3770.66,5295.54c22.468,25.431 54.769,39.995 88.703,39.995c96.047,0 300.757,0 437.818,0c36.02,0 70.565,-14.309 96.035,-39.779c25.47,-25.47 39.779,-60.015 39.779,-96.035l0,-466.371c0,-36.02 -14.309,-70.565 -39.779,-96.035c-25.47,-25.471 -60.015,-39.78 -96.035,-39.78l-437.818,0c-33.934,0 -66.235,14.565 -88.703,39.996c-60.337,68.296 -183.002,207.14 -248.009,280.722c-24.364,27.578 -24.364,68.987 -0,96.565c65.007,73.582 187.672,212.426 248.009,280.722Z"
               style="fill:#595959;stroke:#404040;stroke-width:41.67px;"
               id="path4" /><path
               d="M3021.99,5386.2c-25.43,22.467 -39.995,54.769 -39.995,88.702c0,96.048 0,300.758 0,437.818c-0,36.02 14.309,70.565 39.779,96.035c25.47,25.47 60.015,39.779 96.035,39.779l466.372,0c36.02,0 70.565,-14.309 96.035,-39.779c25.47,-25.47 39.779,-60.015 39.779,-96.035l0,-437.818c0,-33.933 -14.565,-66.235 -39.995,-88.702c-68.297,-60.338 -207.141,-183.002 -280.723,-248.01c-27.578,-24.364 -68.986,-24.364 -96.564,0c-73.582,65.008 -212.426,187.672 -280.723,248.01Z"
               style="fill:#595959;stroke:#404040;stroke-width:41.67px;"
               id="path6" /><path
               d="M2931.34,5295.54c-22.468,25.431 -54.769,39.995 -88.703,39.995c-96.047,0 -300.757,0 -437.818,0c-36.02,0 -70.565,-14.309 -96.035,-39.779c-25.47,-25.47 -39.779,-60.015 -39.779,-96.035l-0,-466.371c-0,-36.02 14.309,-70.565 39.779,-96.035c25.47,-25.471 60.015,-39.78 96.035,-39.78l437.818,0c33.934,0 66.235,14.565 88.703,39.996c60.337,68.296 183.002,207.14 248.009,280.722c24.364,27.578 24.364,68.987 0,96.565c-65.007,73.582 -187.672,212.426 -248.009,280.722Z"
               style="fill:#595959;stroke:#404040;stroke-width:41.67px;"
               id="path8" /><path
               d="M3021.99,4546.87c-25.43,-22.467 -39.995,-54.769 -39.995,-88.703c0,-96.047 0,-300.757 0,-437.817c-0,-36.02 14.309,-70.565 39.779,-96.035c25.47,-25.471 60.015,-39.78 96.035,-39.78l466.372,0c36.02,0 70.565,14.309 96.035,39.78c25.47,25.47 39.779,60.015 39.779,96.035l0,437.817c0,33.934 -14.565,66.236 -39.995,88.703c-68.297,60.338 -207.141,183.002 -280.723,248.01c-27.578,24.364 -68.986,24.364 -96.564,-0c-73.582,-65.008 -212.426,-187.672 -280.723,-248.01Z"
               style="fill:#595959;stroke:#404040;stroke-width:41.67px;"
               id="path10" /></g><path
             d="M4810,4966.53l-232,262l0,-524l232,262Z"
             style="fill:none;stroke:#000;stroke-width:20.83px;"
             id="path13" /><path
             d="M1892,4966.53l232,262l-0,-524l-232,262Z"
             style="fill:none;stroke:#000;stroke-width:20.83px;"
             id="path15" /><path
             d="M3351,6425.53l-262,-232l524,0l-262,232Z"
             style="fill:none;stroke:#000;stroke-width:20.83px;"
             id="path17" /><path
             d="M3351,3507.53l-262,232l524,0l-262,-232Z"
             style="fill:none;stroke:#000;stroke-width:20.83px;"
             id="path19" /></g></g><g
         id="Base"><g
           id="Base1"
           serif:id="Base"><path
             d="M1875,3636c0,0 205.726,-169.78 295,-296.752c52.938,-105.72 53.86,-485.219 88,-583.248c34.14,-98.029 124.145,-452 988,-452c863.855,0 933.091,200.612 1047,584c113.909,383.388 82.114,526 816,526l1912.65,0"
             style="fill:none;stroke:#000;stroke-width:20.83px;"
             id="path23" /><path
             d="M2135,3211l251,-1086c0,0 80.109,-386 1069,-386c988.891,0 1053,678.558 1053,806c0,127.442 -14.804,222 214,222l2299.65,0"
             style="fill:none;stroke:#000;stroke-width:20.83px;"
             id="path25" /><path
             d="M4470,3240l254,-1257"
             style="fill:none;stroke:#000;stroke-width:20.83px;"
             id="path27" /><path
             d="M4679,2679l404,-311"
             style="fill:none;stroke:#000;stroke-width:20.83px;"
             id="path29" /><path
             d="M4616,2888l154,445"
             style="fill:none;stroke:#000;stroke-width:20.83px;"
             id="path31" /><path
             d="M2257,2711c0,0 -530.357,346.988 -727,968"
             style="fill:none;stroke:#000;stroke-width:20.83px;"
             id="path33" /><path
             d="M2388,2118l67,-345"
             style="fill:none;stroke:#000;stroke-width:20.83px;"
             id="path35" /><path
             d="M3195,8453l970,-1409"
             style="fill:none;stroke:#000;stroke-width:20.83px;"
             id="path37" /><path
             d="M6604,6800l417.654,0"
             style="fill:none;stroke:#000;stroke-width:20.83px;"
             id="path39" /><path
             d="M4283.05,6645.21c-5.207,2.9 -10.43,5.776 -15.667,8.629c-272.398,148.372 -584.621,232.699 -916.384,232.699c-1059.68,0 -1920,-860.323 -1920,-1920c0,-1059.68 860.323,-1920 1920,-1920c1059.68,0 1920,860.324 1920,1920c0,338.339 -87.704,656.354 -241.597,932.534"
             style="fill:none;stroke:#000;stroke-width:41.67px;"
             id="path41" /><path
             d="M3895,4422.53l0,-986.947c-0,-53.207 -43.133,-96.34 -96.34,-96.34l-895.32,0c-53.207,0 -96.34,43.133 -96.34,96.34l0,986.947l-987.66,0c-25.551,0 -50.055,10.151 -68.123,28.218c-18.067,18.067 -28.217,42.572 -28.217,68.123l0,895.319c-0,25.551 10.15,50.056 28.217,68.123c18.068,18.067 42.572,28.217 68.123,28.217l987.66,0l0,988.373c0,25.551 10.15,50.055 28.217,68.123c18.068,18.067 42.572,28.217 68.123,28.217l895.32,0c25.551,0 50.055,-10.15 68.123,-28.217c18.067,-18.068 28.217,-42.572 28.217,-68.123l0,-988.373l987.66,0c25.551,0 50.055,-10.15 68.123,-28.217c18.067,-18.067 28.217,-42.572 28.217,-68.123l0,-895.319c0,-25.551 -10.15,-50.056 -28.217,-68.123c-18.068,-18.067 -42.572,-28.218 -68.123,-28.218l-987.66,0Z"
             style="fill:none;stroke:#000;stroke-width:41.67px;"
             id="path43" /></g><g
           id="Base2"
           serif:id="Base"><path
             d="M12168.3,3636c0,0 -205.726,-169.78 -295,-296.752c-52.938,-105.72 -53.86,-485.219 -88,-583.248c-34.14,-98.029 -124.145,-452 -988,-452c-863.855,0 -933.091,200.612 -1047,584c-113.909,383.388 -82.114,526 -816,526l-1912.65,0"
             style="fill:none;stroke:#000;stroke-width:20.83px;"
             id="path46" /><path
             d="M11908.3,3211l-251,-1086c0,0 -80.109,-386 -1069,-386c-988.89,0 -1053,678.558 -1053,806c0,127.442 14.804,222 -214,222l-2299.65,0"
             style="fill:none;stroke:#000;stroke-width:20.83px;"
             id="path48" /><path
             d="M9573.31,3240l-254,-1257"
             style="fill:none;stroke:#000;stroke-width:20.83px;"
             id="path50" /><path
             d="M9364.31,2679l-404,-311"
             style="fill:none;stroke:#000;stroke-width:20.83px;"
             id="path52" /><path
             d="M9427.31,2888l-154,445"
             style="fill:none;stroke:#000;stroke-width:20.83px;"
             id="path54" /><path
             d="M11786.3,2711c0,0 530.357,346.988 727,968"
             style="fill:none;stroke:#000;stroke-width:20.83px;"
             id="path56" /><path
             d="M11655.3,2118l-67,-345"
             style="fill:none;stroke:#000;stroke-width:20.83px;"
             id="path58" /><path
             d="M10848.3,8453l-970,-1409"
             style="fill:none;stroke:#000;stroke-width:20.83px;"
             id="path60" /><path
             d="M7439.31,6800l-417.653,0"
             style="fill:none;stroke:#000;stroke-width:20.83px;"
             id="path62" /><path
             d="M9787.41,6660.04c269.674,144.515 577.786,226.492 904.894,226.492c1059.68,0 1920,-860.323 1920,-1920c0,-1059.68 -860.323,-1920 -1920,-1920c-1059.68,0 -1920,860.324 -1920,1920c0,335.752 86.368,651.49 238.079,926.191"
             style="fill:none;stroke:#000;stroke-width:41.67px;"
             id="path64" /><path
             d="M10148.3,4422.53l0,-986.947c0,-53.207 43.133,-96.34 96.34,-96.34l895.32,0c53.207,0 96.34,43.133 96.34,96.34l0,986.947l987.66,0c25.551,0 50.055,10.151 68.123,28.218c18.067,18.067 28.217,42.572 28.217,68.123c0,206.346 0,688.973 0,895.319c0,25.551 -10.15,50.056 -28.217,68.123c-18.068,18.067 -42.572,28.217 -68.123,28.217l-987.66,0l0,988.373c0,25.551 -10.15,50.055 -28.217,68.123c-18.068,18.067 -42.572,28.217 -68.123,28.217l-895.32,0c-25.551,0 -50.055,-10.15 -68.123,-28.217c-18.067,-18.068 -28.217,-42.572 -28.217,-68.123l0,-988.373l-987.66,0c-25.551,0 -50.055,-10.15 -68.123,-28.217c-18.067,-18.067 -28.217,-42.572 -28.217,-68.123c0,-206.346 0,-688.973 0,-895.319c0,-25.551 10.15,-50.056 28.217,-68.123c18.068,-18.067 42.572,-28.218 68.123,-28.218l987.66,0Z"
             style="fill:none;stroke:#000;stroke-width:41.67px;"
             id="path66" /></g></g><g
         id="Botões1"
         serif:id="Botões"><path
           d="M3511.78,1591c-224.789,-5.298 -789,-13 -874,310c-131.822,500.924 -48.891,239 708,239c756.891,0 803.274,397.046 917,-90c92,-394 -454,-452 -751,-459Z"
           style="fill:#595959;stroke:#404040;stroke-width:41.67px;"
           id="path70" /><path
           d="M10531.5,1591c224.789,-5.298 789,-13 874,310c131.822,500.924 48.891,239 -708,239c-756.891,0 -803.273,397.046 -917,-90c-92,-394 454,-452 751,-459Z"
           style="fill:#595959;stroke:#404040;stroke-width:41.67px;"
           id="path72" /><path
           d="M3692.24,796.638c-224.79,-5.953 -789,-14.609 -874,348.364c-131.822,562.916 -48.891,268.578 708,268.578c756.89,-0 803.273,446.182 917,-101.138c92,-442.76 -454,-507.937 -751,-515.804Z"
           style="fill:#595959;stroke:#404040;stroke-width:41.67px;"
           id="path74" /><path
           d="M10351.1,796.638c224.789,-5.953 789,-14.609 874,348.364c131.822,562.916 48.89,268.578 -708,268.578c-756.891,-0 -803.274,446.182 -917,-101.138c-92,-442.76 454,-507.937 751,-515.804Z"
           style="fill:#595959;stroke:#404040;stroke-width:41.67px;"
           id="path76" /><g
           transform="matrix(-0.984917,-0.173029,0.173029,-0.984917,12155.2,9433.92)"
           id="g80"><text
             x="9839.79px"
             y="6093.16px"
             style="font-family:'Arial-BoldMT', 'Arial', sans-serif;font-weight:700;font-size:261.061px;fill:#e0e0e0;"
             id="text78">1</text></g><g
           transform="matrix(-0.984808,0.173648,-0.173648,-0.984808,28878.8,3509.63)"
           id="g84"><text
             x="17636.9px"
             y="4924.1px"
             style="font-family:'Arial-BoldMT', 'Arial', sans-serif;font-weight:700;font-size:261.061px;fill:#e0e0e0;"
             id="text82">1</text></g><g
           transform="matrix(-0.992546,-0.121869,0.121869,-0.992546,13104,7378.99)"
           id="g88"><text
             x="10128.7px"
             y="5194.76px"
             style="font-family:'Arial-BoldMT', 'Arial', sans-serif;font-weight:700;font-size:261.061px;fill:#e0e0e0;"
             id="text86">2</text></g><g
           transform="matrix(-0.992546,0.121869,-0.121869,-0.992546,28316.7,3208.88)"
           id="g92"><text
             x="17411.2px"
             y="4376.4px"
             style="font-family:'Arial-BoldMT', 'Arial', sans-serif;font-weight:700;font-size:261.061px;fill:#e0e0e0;"
             id="text90">2</text></g></g><g
         id="Duckstation--Logo-"
         serif:id="Duckstation (Logo)"><path
           d="M6547.88,5012.41c-0,14.441 -2.931,25.74 -8.793,33.895c-5.861,8.156 -15.673,12.234 -29.436,12.234l-70.34,-0l0,-178.655l70.34,0c13.763,0 23.575,4.12 29.436,12.361c5.862,8.24 8.793,19.921 8.793,35.043l-0,85.122Zm-26.76,-85.122c-0,-12.403 -1.529,-20.856 -4.587,-25.359c-3.059,-4.502 -8.071,-6.753 -15.037,-6.753l-35.425,-0l-0,148.071l35.425,0c6.966,0 11.978,-2.548 15.037,-7.646c3.058,-5.097 4.587,-12.827 4.587,-23.191l-0,-85.122Z"
           style="fill-rule:nonzero;stroke:#000;stroke-width:1px;stroke-linecap:butt;stroke-miterlimit:2;"
           id="path95" /><path
           d="M6651.35,5043.25l0,-126.154l25.996,0l-0,141.446l-68.557,-0c-7.645,-0 -13.932,-0.765 -18.859,-2.294c-4.927,-1.529 -8.877,-4.035 -11.851,-7.518c-2.973,-3.483 -5.012,-7.943 -6.116,-13.38c-1.105,-5.437 -1.657,-12.149 -1.657,-20.134l0,-98.12l25.996,0l-0,99.139c-0,5.607 0.297,10.195 0.892,13.763c0.594,3.568 1.656,6.329 3.185,8.282c1.529,1.954 3.696,3.271 6.499,3.951c2.803,0.679 6.499,1.019 11.086,1.019l33.386,0Z"
           style="fill-rule:nonzero;stroke:#000;stroke-width:1px;stroke-linecap:butt;stroke-miterlimit:2;"
           id="path97" /><path
           d="M6726.78,5016.23c-0,5.607 0.297,10.195 0.892,13.763c0.595,3.568 1.656,6.329 3.186,8.282c1.529,1.954 3.695,3.271 6.498,3.951c2.804,0.679 6.499,1.019 11.087,1.019l40.267,0l-0,15.292l-49.442,-0c-7.646,-0 -13.932,-0.765 -18.86,-2.294c-4.927,-1.529 -8.877,-4.035 -11.85,-7.518c-2.974,-3.483 -5.012,-7.943 -6.117,-13.38c-1.104,-5.437 -1.656,-12.149 -1.656,-20.134l-0,-54.794c-0,-7.816 0.552,-14.484 1.656,-20.006c1.105,-5.522 3.143,-10.025 6.117,-13.508c2.973,-3.483 6.923,-5.989 11.85,-7.518c4.928,-1.529 11.214,-2.294 18.86,-2.294l49.442,0l-0,15.292l-40.267,-0c-4.588,-0 -8.283,0.34 -11.087,1.019c-2.803,0.68 -4.969,1.996 -6.498,3.95c-1.53,1.954 -2.591,4.715 -3.186,8.283c-0.595,3.568 -0.892,8.156 -0.892,13.762l-0,56.833Z"
           style="fill-rule:nonzero;stroke:#000;stroke-width:1px;stroke-linecap:butt;stroke-miterlimit:2;"
           id="path99" /><path
           d="M6909.01,5058.54l-30.838,-0l-44.09,-78.751l0,78.751l-25.995,-0l0,-183.752l25.995,0l0,97.61l48.933,-55.304l19.879,0l-45.11,51.481l51.226,89.965Z"
           style="fill-rule:nonzero;stroke:#000;stroke-width:1px;stroke-linecap:butt;stroke-miterlimit:2;"
           id="path101" /><path
           d="M7020.12,5004.76c0,18.519 -3.143,32.112 -9.429,40.777c-6.287,8.665 -16.991,12.998 -32.112,12.998l-57.088,-0l0,-15.292l51.991,0c3.568,0 6.753,-0.425 9.557,-1.274c2.803,-0.85 5.097,-2.549 6.881,-5.097c1.784,-2.549 3.143,-6.074 4.078,-10.577c0.934,-4.502 1.401,-10.406 1.401,-17.712c0,-6.287 -0.339,-11.426 -1.019,-15.419c-0.68,-3.993 -1.911,-7.051 -3.695,-9.175c-1.784,-2.124 -4.248,-3.568 -7.391,-4.332c-3.144,-0.765 -7.264,-1.147 -12.361,-1.147l-19.369,-0c-6.456,-0 -11.893,-0.85 -16.311,-2.549c-4.417,-1.699 -7.985,-4.46 -10.704,-8.283c-2.718,-3.823 -4.672,-8.835 -5.861,-15.036c-1.19,-6.202 -1.784,-13.89 -1.784,-23.065c-0,-15.631 2.93,-27.822 8.792,-36.572c5.862,-8.75 16.014,-13.125 30.455,-13.125l49.697,0l0,15.292l-43.325,-0c-3.568,-0 -6.626,0.467 -9.175,1.401c-2.548,0.935 -4.715,2.549 -6.499,4.843c-1.784,2.293 -3.101,5.437 -3.95,9.429c-0.85,3.993 -1.274,9.048 -1.274,15.164c-0,5.947 0.255,10.832 0.764,14.655c0.51,3.822 1.487,6.796 2.931,8.919c1.444,2.124 3.526,3.611 6.244,4.46c2.719,0.85 6.371,1.275 10.959,1.275l18.095,-0c6.796,-0 12.7,0.679 17.712,2.039c5.012,1.359 9.133,3.822 12.361,7.39c3.228,3.568 5.607,8.581 7.136,15.037c1.529,6.456 2.293,14.782 2.293,24.976Z"
           style="fill-rule:nonzero;stroke:#000;stroke-width:1px;stroke-linecap:butt;stroke-miterlimit:2;"
           id="path103" /><path
           d="M7100.15,4932.39l-35.425,-0l0,90.219c0,8.155 1.147,13.635 3.441,16.438c2.294,2.803 6.753,4.205 13.38,4.205l11.468,0l0,15.292l-21.917,-0c-6.117,-0 -11.256,-0.85 -15.419,-2.549c-4.163,-1.699 -7.476,-4.078 -9.94,-7.136c-2.463,-3.058 -4.247,-6.669 -5.352,-10.831c-1.104,-4.163 -1.656,-8.708 -1.656,-13.635l-0,-144.504l25.995,0l0,37.209l35.425,0l0,15.292Z"
           style="fill-rule:nonzero;stroke:#000;stroke-width:1px;stroke-linecap:butt;stroke-miterlimit:2;"
           id="path105" /><path
           d="M7166.16,4973.67l0,14.782l-10.959,0c-4.587,0 -8.283,0.34 -11.086,1.019c-2.803,0.68 -4.97,1.742 -6.499,3.186c-1.529,1.444 -2.591,3.356 -3.186,5.734c-0.594,2.379 -0.892,5.352 -0.892,8.92l0,16.311c0,3.908 0.298,7.094 0.892,9.557c0.595,2.464 1.657,4.46 3.186,5.989c1.529,1.53 3.696,2.591 6.499,3.186c2.803,0.595 6.499,0.892 11.086,0.892l28.799,0l-0,-83.848c-0,-5.606 -0.297,-10.194 -0.892,-13.762c-0.595,-3.568 -1.657,-6.329 -3.186,-8.283c-1.529,-1.954 -3.695,-3.27 -6.499,-3.95c-2.803,-0.679 -6.498,-1.019 -11.086,-1.019l-36.699,-0l-0,-15.292l45.874,0c7.646,0 13.932,0.765 18.859,2.294c4.928,1.529 8.878,4.035 11.851,7.518c2.973,3.483 5.012,7.986 6.117,13.508c1.104,5.522 1.656,12.19 1.656,20.006l0,98.12l-63.969,-0c-7.645,-0 -13.932,-0.723 -18.859,-2.167c-4.927,-1.444 -8.877,-3.568 -11.851,-6.371c-2.973,-2.804 -5.012,-6.287 -6.116,-10.449c-1.105,-4.163 -1.657,-8.963 -1.657,-14.4l0,-18.094c0,-5.437 0.552,-10.237 1.657,-14.4c1.104,-4.162 3.143,-7.645 6.116,-10.449c2.974,-2.803 6.924,-4.927 11.851,-6.371c4.927,-1.445 11.214,-2.167 18.859,-2.167l20.134,0Z"
           style="fill-rule:nonzero;stroke:#000;stroke-width:1px;stroke-linecap:butt;stroke-miterlimit:2;"
           id="path107" /><path
           d="M7294.86,4932.39l-35.425,-0l0,90.219c0,8.155 1.147,13.635 3.441,16.438c2.294,2.803 6.754,4.205 13.38,4.205l11.468,0l0,15.292l-21.917,-0c-6.117,-0 -11.256,-0.85 -15.419,-2.549c-4.163,-1.699 -7.476,-4.078 -9.939,-7.136c-2.464,-3.058 -4.248,-6.669 -5.352,-10.831c-1.105,-4.163 -1.657,-8.708 -1.657,-13.635l0,-144.504l25.995,0l0,37.209l35.425,0l0,15.292Z"
           style="fill-rule:nonzero;stroke:#000;stroke-width:1px;stroke-linecap:butt;stroke-miterlimit:2;"
           id="path109" /><path
           d="M7337.17,5058.54l-25.996,-0l0,-141.446l25.996,0l-0,141.446Zm-0,-159.54l-25.996,-0l0,-24.467l25.996,0l-0,24.467Z"
           style="fill-rule:nonzero;stroke:#000;stroke-width:1px;stroke-linecap:butt;stroke-miterlimit:2;"
           id="path111" /><path
           d="M7433.76,4917.09c7.646,0 13.932,0.765 18.859,2.294c4.928,1.529 8.878,4.035 11.851,7.518c2.974,3.483 5.012,7.986 6.117,13.508c1.104,5.522 1.656,12.19 1.656,20.006l0,54.794c0,7.985 -0.552,14.697 -1.656,20.134c-1.105,5.437 -3.143,9.897 -6.117,13.38c-2.973,3.483 -6.923,5.989 -11.851,7.518c-4.927,1.529 -11.213,2.294 -18.859,2.294l-34.151,-0c-7.645,-0 -13.932,-0.765 -18.859,-2.294c-4.927,-1.529 -8.878,-4.035 -11.851,-7.518c-2.973,-3.483 -5.012,-7.943 -6.116,-13.38c-1.105,-5.437 -1.657,-12.149 -1.657,-20.134l0,-54.794c0,-7.816 0.552,-14.484 1.657,-20.006c1.104,-5.522 3.143,-10.025 6.116,-13.508c2.973,-3.483 6.924,-5.989 11.851,-7.518c4.927,-1.529 11.214,-2.294 18.859,-2.294l34.151,0Zm-46.639,99.139c0,5.607 0.298,10.195 0.892,13.763c0.595,3.568 1.657,6.329 3.186,8.282c1.529,1.954 3.695,3.271 6.499,3.951c2.803,0.679 6.499,1.019 11.086,1.019l15.801,0c4.588,0 8.283,-0.34 11.086,-1.019c2.804,-0.68 4.97,-1.997 6.499,-3.951c1.529,-1.953 2.591,-4.714 3.186,-8.282c0.595,-3.568 0.892,-8.156 0.892,-13.763l0,-56.833c0,-5.606 -0.297,-10.194 -0.892,-13.762c-0.595,-3.568 -1.657,-6.329 -3.186,-8.283c-1.529,-1.954 -3.695,-3.27 -6.499,-3.95c-2.803,-0.679 -6.498,-1.019 -11.086,-1.019l-15.801,-0c-4.587,-0 -8.283,0.34 -11.086,1.019c-2.804,0.68 -4.97,1.996 -6.499,3.95c-1.529,1.954 -2.591,4.715 -3.186,8.283c-0.594,3.568 -0.892,8.156 -0.892,13.762l0,56.833Z"
           style="fill-rule:nonzero;stroke:#000;stroke-width:1px;stroke-linecap:butt;stroke-miterlimit:2;"
           id="path113" /><path
           d="M7521.68,4932.39l0,126.154l-25.995,-0l0,-141.446l69.831,0c7.645,0 13.932,0.765 18.859,2.294c4.927,1.529 8.878,4.035 11.851,7.518c2.973,3.483 5.012,7.986 6.116,13.508c1.105,5.522 1.657,12.19 1.657,20.006l-0,98.12l-25.995,-0l-0,-99.14c-0,-5.606 -0.298,-10.194 -0.892,-13.762c-0.595,-3.568 -1.657,-6.329 -3.186,-8.283c-1.529,-1.954 -3.695,-3.27 -6.499,-3.95c-2.803,-0.679 -6.499,-1.019 -11.086,-1.019l-34.661,-0Z"
           style="fill-rule:nonzero;stroke:#000;stroke-width:1px;stroke-linecap:butt;stroke-miterlimit:2;"
           id="path115" /><g
           id="Duck"><path
             d="M7003.84,4643.95l-58.35,35.385"
             style="fill:none;stroke:#000;stroke-width:20.83px;"
             id="path117" /><path
             d="M6945.49,4563.11l-0,48.976l58.35,31.87l-0,70.067l-58.35,33.979"
             style="fill:none;stroke:#000;stroke-width:20.83px;"
             id="path119" /><path
             d="M7123.82,4457.89l-0,48.976l57.764,31.987"
             style="fill:none;stroke:#000;stroke-width:20.83px;"
             id="path121" /><path
             d="M7003.84,4530.07l-0,46.516l118.809,67.372l58.936,-33.041l-0,-69.598l-59.639,35.267l-61.162,-36.673l-0,-44.29"
             style="fill:none;stroke:#000;stroke-width:20.83px;"
             id="path123" /><path
             d="M6826.45,4523.04l-0,154.663l119.043,70.301l-0,-68.895l-61.162,-35.854l-0,-85.064"
             style="fill:none;stroke:#000;stroke-width:20.83px;"
             id="path125" /><path
             d="M6703.31,3825.65l93.97,-54.484"
             style="fill:none;stroke:#000;stroke-width:20.83px;"
             id="path127" /><path
             d="M6613.32,3771.16l89.985,-51.671l93.97,51.671l-0,103.46"
             style="fill:none;stroke:#000;stroke-width:20.83px;"
             id="path129" /><path
             d="M6703.31,3929.11l0,-104.398l-89.985,-53.546l-0,109.319l83.658,53.077"
             style="fill:none;stroke:#000;stroke-width:20.83px;"
             id="path131" /><path
             d="M7094.88,4279.44l82.252,-49.328"
             style="fill:none;stroke:#000;stroke-width:20.83px;"
             id="path133" /><path
             d="M7154.29,4159.23l0,56.552l146.461,85.222l0,-56.71"
             style="fill:none;stroke:#000;stroke-width:20.83px;"
             id="path135" /><path
             d="M7301.8,4074.16l-147.516,85.885l147.164,84.244l145.758,-84.596l-145.406,-85.533Z"
             style="fill:none;stroke:#000;stroke-width:20.83px;"
             id="path137" /><path
             d="M6920.19,4576.58l324.088,-190.164l-0,-117.755"
             style="fill:none;stroke:#000;stroke-width:20.83px;"
             id="path139" /><path
             d="M6596.1,3994.25l248.632,-145.875"
             style="fill:none;stroke:#000;stroke-width:20.83px;"
             id="path141" /><path
             d="M6920.19,4180.12l-0,396.458l-324.089,-188.201l0,-394.127l324.089,185.87Z"
             style="fill:none;stroke:#000;stroke-width:20.83px;"
             id="path143" /><path
             d="M7094.88,3973.98l250.155,-146.695"
             style="fill:none;stroke:#000;stroke-width:20.83px;"
             id="path145" /><g
             id="Camada2"><path
               d="M6844.73,4135.68l-0,-308.857l250.155,-144.82l250.155,145.641l-0,271.714"
               style="fill:none;stroke:#000;stroke-width:20.83px;"
               id="path147" /><path
               d="M6844.73,4135.68l250.155,143.766l-0,-304.053l-250.155,-148.101"
               style="fill:none;stroke:#000;stroke-width:20.83px;"
               id="path149" /></g><path
             d="M7300.75,4301l146.461,-85.222l-0,-56.552"
             style="fill:none;stroke:#000;stroke-width:20.83px;"
             id="path152" /><path
             d="M7123.82,4576.23l-0,67.723"
             style="fill:none;stroke:#000;stroke-width:20.83px;"
             id="path154" /><path
             d="M6885.97,4643.95l59.522,-33.861"
             style="fill:none;stroke:#000;stroke-width:20.83px;"
             id="path156" /><path
             d="M7062.08,4539.44l61.748,-33.159"
             style="fill:none;stroke:#000;stroke-width:20.83px;"
             id="path158" /><path
             d="M7130.74,4075.22l-0,59.639l50.851,-28.707l-0,-60.107l-50.851,29.175Z"
             style="fill:none;stroke:#000;stroke-width:20.83px;"
             id="path160" /><path
             d="M7258.45,4003.63l0,59.639l50.851,-28.707l0,-60.107l-50.851,29.175Z"
             style="fill:none;stroke:#000;stroke-width:20.83px;"
             id="path162" /></g></g><g
         id="Botões2"
         serif:id="Botões"><circle
           cx="9642.81"
           cy="4966.53"
           r="461.5"
           style="fill:#595959;stroke:#404040;stroke-width:41.67px;"
           id="circle166" /><path
           d="M11153.8,3917.03c0,254.709 -206.791,461.5 -461.5,461.5c-254.709,0 -461.5,-206.791 -461.5,-461.5c0,-254.708 206.791,-461.5 461.5,-461.5c254.709,0 461.5,206.792 461.5,461.5Z"
           style="fill:#595959;stroke:#404040;stroke-width:41.67px;"
           id="path168" /><circle
           cx="11741.8"
           cy="4966.53"
           r="461.5"
           style="fill:#595959;stroke:#404040;stroke-width:41.67px;"
           id="circle170" /><path
           d="M11153.8,6016.03c0,254.709 -206.791,461.5 -461.5,461.5c-254.709,0 -461.5,-206.791 -461.5,-461.5c0,-254.708 206.791,-461.5 461.5,-461.5c254.709,0 461.5,206.792 461.5,461.5Z"
           style="fill:#595959;stroke:#404040;stroke-width:41.67px;"
           id="path172" /><g
           id="X"><path
             d="M10915,5793.34l-445.386,445.385"
             style="fill:none;stroke:#6f97e3;stroke-width:83.33px;"
             id="path174" /><path
             d="M10469.6,5793.34l445.386,445.385"
             style="fill:none;stroke:#6f97e3;stroke-width:83.33px;"
             id="path176" /></g><path
           d="M10692.3,3603l252,504l-504,0l252,-504Z"
           style="fill:none;stroke:#7ae0c4;stroke-width:83.33px;"
           id="path179" /><circle
           cx="11741.8"
           cy="4952.87"
           r="305.126"
           style="fill:none;stroke:#ee676b;stroke-width:83.33px;"
           id="circle181" /><rect
           x="9400.27"
           y="4724"
           width="485.071"
           height="485.071"
           style="fill:none;stroke:#f37caa;stroke-width:83.33px;"
           id="rect183" /></g><g
         id="Botões-Centrais"
         serif:id="Botões Centrais"><path
           id="Analógico"
           d="M7353.15,6081.73c-0,-62.812 -50.92,-113.731 -113.732,-113.731l-435.537,0c-62.812,0 -113.731,50.919 -113.731,113.731l-0,173.538c-0,62.812 50.919,113.731 113.731,113.731l435.537,0c62.812,-0 113.732,-50.919 113.732,-113.731l-0,-173.538Z"
           style="fill:#595959;stroke:#404040;stroke-width:41.67px;" /><path
           id="Select"
           d="M6176,4817.73c-0,-62.812 -50.919,-113.731 -113.731,-113.731c-121.75,0 -313.788,-0 -435.538,0c-62.812,0 -113.731,50.919 -113.731,113.731l0,173.538c0,62.812 50.919,113.731 113.731,113.731l435.538,0c62.812,-0 113.731,-50.919 113.731,-113.731c0,-54.335 0,-119.203 0,-173.538Z"
           style="fill:#595959;stroke:#404040;stroke-width:41.67px;" /><rect
           id="Led-Analógico"
           serif:id="Led Analógico"
           x="6832.15"
           y="6516"
           width="379"
           height="124"
           style="fill:#a7de74;stroke:#404040;stroke-width:20.83px;stroke-linecap:square;" /><path
           id="Start"
           d="M8466.86,4889.43c18.696,6.583 31.202,24.247 31.202,44.068c0,19.821 -12.506,37.485 -31.202,44.068c-150.687,53.064 -397.808,140.086 -512.618,180.515c-14.296,5.034 -30.146,2.821 -42.516,-5.938c-12.37,-8.758 -19.723,-22.973 -19.723,-38.13l0,-361.03c-0,-15.157 7.353,-29.372 19.723,-38.13c12.37,-8.759 28.22,-10.972 42.516,-5.938c114.81,40.429 361.931,127.451 512.618,180.515Z"
           style="fill:#595959;stroke:#404040;stroke-width:41.67px;" /></g><g
         id="Textos"><g
           id="ANALOG"><path
             d="M6511.96,5844.83l68.235,-177.676l25.33,0l72.719,177.676l-26.785,0l-20.725,-53.812l-74.294,0l-19.513,53.812l-24.967,0Zm51.267,-72.961l60.235,-0l-18.543,-49.206c-5.656,-14.948 -9.857,-27.229 -12.604,-36.844c-2.263,11.392 -5.454,22.704 -9.575,33.935l-19.513,52.115Z"
             style="fill-rule:nonzero;stroke:#63112e;stroke-width:1px;stroke-linecap:butt;stroke-miterlimit:2;"
             id="path191" /><path
             d="M6696.78,5844.83l0,-177.676l24.118,0l93.323,139.499l-0,-139.499l22.542,0l0,177.676l-24.118,0l-93.322,-139.62l-0,139.62l-22.543,0Z"
             style="fill-rule:nonzero;stroke:#63112e;stroke-width:1px;stroke-linecap:butt;stroke-miterlimit:2;"
             id="path193" /><path
             d="M6856.76,5844.83l68.234,-177.676l25.331,0l72.718,177.676l-26.784,0l-20.725,-53.812l-74.294,0l-19.513,53.812l-24.967,0Zm51.267,-72.961l60.235,-0l-18.543,-49.206c-5.656,-14.948 -9.858,-27.229 -12.605,-36.844c-2.262,11.392 -5.454,22.704 -9.574,33.935l-19.513,52.115Z"
             style="fill-rule:nonzero;stroke:#63112e;stroke-width:1px;stroke-linecap:butt;stroke-miterlimit:2;"
             id="path195" /><path
             d="M7040.86,5844.83l0,-177.676l23.513,0l-0,156.709l87.505,-0l-0,20.967l-111.018,0Z"
             style="fill-rule:nonzero;stroke:#63112e;stroke-width:1px;stroke-linecap:butt;stroke-miterlimit:2;"
             id="path197" /><path
             d="M7172.73,5758.29c-0,-29.492 7.918,-52.58 23.754,-69.265c15.837,-16.685 36.279,-25.027 61.326,-25.027c16.402,0 31.189,3.919 44.359,11.756c13.17,7.838 23.209,18.766 30.117,32.784c6.909,14.019 10.363,29.916 10.363,47.691c-0,18.019 -3.636,34.138 -10.908,48.358c-7.272,14.221 -17.574,24.987 -30.905,32.3c-13.332,7.312 -27.714,10.968 -43.147,10.968c-16.725,-0 -31.673,-4.04 -44.843,-12.12c-13.17,-8.08 -23.149,-19.109 -29.936,-33.087c-6.787,-13.978 -10.18,-28.764 -10.18,-44.358Zm24.239,0.363c0,21.412 5.757,38.279 17.271,50.6c11.514,12.322 25.956,18.483 43.328,18.483c17.695,0 32.259,-6.221 43.692,-18.664c11.433,-12.443 17.149,-30.098 17.149,-52.964c0,-14.463 -2.444,-27.087 -7.332,-37.874c-4.889,-10.787 -12.039,-19.149 -21.452,-25.088c-9.413,-5.939 -19.978,-8.908 -31.693,-8.908c-16.645,0 -30.966,5.717 -42.965,17.15c-11.999,11.432 -17.998,30.521 -17.998,57.265Z"
             style="fill-rule:nonzero;stroke:#63112e;stroke-width:1px;stroke-linecap:butt;stroke-miterlimit:2;"
             id="path199" /><path
             d="M7456.09,5775.14l-0,-20.846l75.264,-0.121l-0,65.932c-11.555,9.211 -23.472,16.139 -35.754,20.785c-12.281,4.646 -24.886,6.969 -37.813,6.969c-17.453,-0 -33.31,-3.737 -47.571,-11.211c-14.26,-7.474 -25.027,-18.28 -32.299,-32.42c-7.272,-14.14 -10.908,-29.936 -10.908,-47.389c0,-17.29 3.616,-33.43 10.848,-48.418c7.231,-14.988 17.634,-26.118 31.208,-33.39c13.574,-7.272 29.209,-10.908 46.904,-10.908c12.847,0 24.461,2.081 34.844,6.242c10.383,4.161 18.523,9.958 24.421,17.392c5.899,7.433 10.383,17.129 13.453,29.087l-21.209,5.818c-2.667,-9.05 -5.979,-16.16 -9.939,-21.331c-3.959,-5.171 -9.615,-9.312 -16.967,-12.423c-7.353,-3.111 -15.514,-4.666 -24.482,-4.666c-10.746,0 -20.038,1.636 -27.876,4.909c-7.837,3.272 -14.16,7.574 -18.967,12.907c-4.808,5.333 -8.545,11.191 -11.211,17.574c-4.525,10.988 -6.787,22.906 -6.787,35.753c0,15.837 2.727,29.088 8.181,39.753c5.454,10.665 13.392,18.584 23.815,23.755c10.423,5.171 21.493,7.756 33.208,7.756c10.181,0 20.119,-1.959 29.815,-5.878c9.696,-3.918 17.049,-8.1 22.058,-12.544l0,-33.087l-52.236,0Z"
             style="fill-rule:nonzero;stroke:#63112e;stroke-width:1px;stroke-linecap:butt;stroke-miterlimit:2;"
             id="path201" /></g><g
           id="SELECT"><path
             d="M5369.77,5385.62l22.18,-1.939c1.05,8.887 3.494,16.179 7.332,21.876c3.838,5.696 9.797,10.302 17.877,13.816c8.08,3.515 17.169,5.272 27.269,5.272c8.969,0 16.887,-1.333 23.755,-3.999c6.868,-2.667 11.978,-6.323 15.332,-10.969c3.353,-4.645 5.029,-9.716 5.029,-15.21c0,-5.575 -1.616,-10.443 -4.848,-14.604c-3.232,-4.161 -8.564,-7.656 -15.998,-10.484c-4.767,-1.858 -15.311,-4.747 -31.632,-8.665c-16.322,-3.919 -27.755,-7.616 -34.299,-11.09c-8.484,-4.444 -14.807,-9.958 -18.968,-16.544c-4.161,-6.585 -6.241,-13.957 -6.241,-22.118c-0,-8.969 2.545,-17.352 7.635,-25.149c5.09,-7.797 12.524,-13.715 22.3,-17.755c9.777,-4.04 20.644,-6.06 32.603,-6.06c13.17,0 24.785,2.121 34.844,6.363c10.059,4.242 17.796,10.483 23.209,18.725c5.414,8.241 8.323,17.574 8.727,27.997l-22.543,1.696c-1.212,-11.231 -5.313,-19.714 -12.302,-25.451c-6.989,-5.737 -17.311,-8.605 -30.966,-8.605c-14.22,-0 -24.583,2.606 -31.087,7.817c-6.504,5.212 -9.756,11.494 -9.756,18.846c-0,6.383 2.302,11.635 6.908,15.756c4.525,4.121 16.341,8.342 35.45,12.665c19.109,4.323 32.219,8.1 39.329,11.332c10.342,4.767 17.977,10.807 22.906,18.119c4.929,7.312 7.393,15.736 7.393,25.27c0,9.453 -2.707,18.361 -8.12,26.724c-5.414,8.363 -13.19,14.867 -23.331,19.513c-10.14,4.646 -21.553,6.969 -34.238,6.969c-16.079,-0 -29.552,-2.343 -40.419,-7.03c-10.868,-4.686 -19.392,-11.736 -25.573,-21.149c-6.181,-9.413 -9.433,-20.058 -9.757,-31.935Z"
             style="fill-rule:nonzero;stroke:#63112e;stroke-width:1px;stroke-linecap:butt;stroke-miterlimit:2;"
             id="path204" /><path
             d="M5543.81,5442.71l0,-177.676l128.47,-0l0,20.967l-104.957,0l-0,54.418l98.291,-0l0,20.846l-98.291,-0l-0,60.478l109.078,-0l-0,20.967l-132.591,-0Z"
             style="fill-rule:nonzero;stroke:#63112e;stroke-width:1px;stroke-linecap:butt;stroke-miterlimit:2;"
             id="path206" /><path
             d="M5707.91,5442.71l0,-177.676l23.513,-0l-0,156.709l87.504,-0l0,20.967l-111.017,-0Z"
             style="fill-rule:nonzero;stroke:#63112e;stroke-width:1px;stroke-linecap:butt;stroke-miterlimit:2;"
             id="path208" /><path
             d="M5847.41,5442.71l-0,-177.676l128.469,-0l0,20.967l-104.957,0l0,54.418l98.291,-0l0,20.846l-98.291,-0l0,60.478l109.078,-0l0,20.967l-132.59,-0Z"
             style="fill-rule:nonzero;stroke:#63112e;stroke-width:1px;stroke-linecap:butt;stroke-miterlimit:2;"
             id="path210" /><path
             d="M6139.25,5380.41l23.512,5.939c-4.928,19.311 -13.796,34.036 -26.603,44.176c-12.806,10.141 -28.461,15.211 -46.964,15.211c-19.149,-0 -34.723,-3.899 -46.722,-11.696c-11.998,-7.797 -21.128,-19.088 -27.39,-33.875c-6.262,-14.786 -9.393,-30.663 -9.393,-47.63c-0,-18.503 3.535,-34.643 10.605,-48.419c7.07,-13.776 17.129,-24.239 30.178,-31.39c13.049,-7.151 27.411,-10.726 43.086,-10.726c17.775,0 32.723,4.525 44.843,13.574c12.12,9.05 20.563,21.775 25.33,38.177l-23.148,5.454c-4.121,-12.927 -10.1,-22.34 -17.938,-28.239c-7.837,-5.898 -17.695,-8.847 -29.572,-8.847c-13.655,-0 -25.068,3.272 -34.238,9.817c-9.171,6.545 -15.615,15.331 -19.331,26.36c-3.717,11.029 -5.575,22.402 -5.575,34.118c-0,15.109 2.201,28.299 6.605,39.571c4.403,11.271 11.251,19.694 20.543,25.269c9.292,5.575 19.351,8.363 30.178,8.363c13.17,-0 24.32,-3.798 33.451,-11.393c9.13,-7.595 15.311,-18.866 18.543,-33.814Z"
             style="fill-rule:nonzero;stroke:#63112e;stroke-width:1px;stroke-linecap:butt;stroke-miterlimit:2;"
             id="path212" /><path
             d="M6236.94,5442.71l0,-156.709l-58.538,0l-0,-20.967l140.832,-0l-0,20.967l-58.781,0l-0,156.709l-23.513,-0Z"
             style="fill-rule:nonzero;stroke:#63112e;stroke-width:1px;stroke-linecap:butt;stroke-miterlimit:2;"
             id="path214" /></g><g
           id="START"><path
             d="M7807.74,5385.62l22.179,-1.939c1.051,8.887 3.495,16.179 7.333,21.876c3.838,5.696 9.797,10.302 17.877,13.816c8.079,3.515 17.169,5.272 27.269,5.272c8.969,0 16.887,-1.333 23.755,-3.999c6.868,-2.667 11.978,-6.323 15.331,-10.969c3.354,-4.645 5.03,-9.716 5.03,-15.21c0,-5.575 -1.616,-10.443 -4.848,-14.604c-3.232,-4.161 -8.564,-7.656 -15.998,-10.484c-4.767,-1.858 -15.311,-4.747 -31.633,-8.665c-16.321,-3.919 -27.754,-7.616 -34.298,-11.09c-8.484,-4.444 -14.807,-9.958 -18.968,-16.544c-4.161,-6.585 -6.242,-13.957 -6.242,-22.118c0,-8.969 2.546,-17.352 7.636,-25.149c5.09,-7.797 12.524,-13.715 22.3,-17.755c9.777,-4.04 20.644,-6.06 32.602,-6.06c13.171,0 24.785,2.121 34.845,6.363c10.059,4.242 17.796,10.483 23.209,18.725c5.414,8.241 8.322,17.574 8.726,27.997l-22.542,1.696c-1.212,-11.231 -5.313,-19.714 -12.302,-25.451c-6.989,-5.737 -17.311,-8.605 -30.966,-8.605c-14.221,-0 -24.583,2.606 -31.087,7.817c-6.504,5.212 -9.757,11.494 -9.757,18.846c0,6.383 2.303,11.635 6.909,15.756c4.524,4.121 16.341,8.342 35.45,12.665c19.109,4.323 32.218,8.1 39.329,11.332c10.342,4.767 17.977,10.807 22.906,18.119c4.929,7.312 7.393,15.736 7.393,25.27c0,9.453 -2.707,18.361 -8.12,26.724c-5.414,8.363 -13.191,14.867 -23.331,19.513c-10.14,4.646 -21.553,6.969 -34.238,6.969c-16.079,-0 -29.552,-2.343 -40.42,-7.03c-10.867,-4.686 -19.391,-11.736 -25.572,-21.149c-6.181,-9.413 -9.433,-20.058 -9.757,-31.935Z"
             style="fill-rule:nonzero;stroke:#63112e;stroke-width:1px;stroke-linecap:butt;stroke-miterlimit:2;"
             id="path217" /><path
             d="M8026.5,5442.71l0,-156.709l-58.538,0l-0,-20.967l140.831,-0l0,20.967l-58.78,0l-0,156.709l-23.513,-0Z"
             style="fill-rule:nonzero;stroke:#63112e;stroke-width:1px;stroke-linecap:butt;stroke-miterlimit:2;"
             id="path219" /><path
             d="M8094.98,5442.71l68.234,-177.676l25.331,-0l72.718,177.676l-26.784,-0l-20.725,-53.812l-74.294,0l-19.513,53.812l-24.967,-0Zm51.267,-72.961l60.235,-0l-18.543,-49.206c-5.656,-14.948 -9.858,-27.23 -12.605,-36.845c-2.262,11.393 -5.454,22.705 -9.575,33.936l-19.512,52.115Z"
             style="fill-rule:nonzero;stroke:#63112e;stroke-width:1px;stroke-linecap:butt;stroke-miterlimit:2;"
             id="path221" /><path
             d="M8280.41,5442.71l0,-177.676l78.779,-0c15.837,-0 27.875,1.596 36.117,4.787c8.241,3.192 14.826,8.827 19.755,16.907c4.929,8.08 7.393,17.008 7.393,26.785c0,12.605 -4.08,23.23 -12.241,31.875c-8.16,8.645 -20.765,14.14 -37.813,16.483c6.221,2.989 10.948,5.939 14.18,8.847c6.868,6.303 13.372,14.181 19.513,23.634l30.905,48.358l-29.572,-0l-23.513,-36.965c-6.868,-10.666 -12.523,-18.827 -16.967,-24.482c-4.444,-5.656 -8.424,-9.615 -11.938,-11.878c-3.515,-2.262 -7.09,-3.838 -10.726,-4.727c-2.667,-0.565 -7.03,-0.848 -13.09,-0.848l-27.269,0l-0,78.9l-23.513,-0Zm23.513,-99.261l50.539,-0c10.746,-0 19.15,-1.111 25.209,-3.333c6.06,-2.222 10.666,-5.777 13.817,-10.665c3.151,-4.889 4.727,-10.201 4.727,-15.938c-0,-8.403 -3.05,-15.311 -9.151,-20.725c-6.1,-5.413 -15.735,-8.12 -28.905,-8.12l-56.236,-0l-0,58.781Z"
             style="fill-rule:nonzero;stroke:#63112e;stroke-width:1px;stroke-linecap:butt;stroke-miterlimit:2;"
             id="path223" /><path
             d="M8500.02,5442.71l-0,-156.709l-58.539,0l0,-20.967l140.832,-0l0,20.967l-58.781,0l0,156.709l-23.512,-0Z"
             style="fill-rule:nonzero;stroke:#63112e;stroke-width:1px;stroke-linecap:butt;stroke-miterlimit:2;"
             id="path225" /></g></g><g
         id="Analógicos"><circle
           cx="5363.15"
           cy="7007.5"
           r="1148.5"
           style="fill:none;stroke:#000;stroke-width:62.5px;stroke-linecap:square;"
           id="circle229" /><circle
           cx="8680.15"
           cy="7007.5"
           r="1148.5"
           style="fill:none;stroke:#000;stroke-width:62.5px;stroke-linecap:square;"
           id="circle231" /><circle
           cx="5363.15"
           cy="7007.5"
           r="867.5"
           style="fill:#4d4d4d;stroke:#404040;stroke-width:62.5px;stroke-linecap:square;"
           id="circle233" /><circle
           cx="8680.15"
           cy="7007.5"
           r="867.5"
           style="fill:#4d4d4d;stroke:#404040;stroke-width:62.5px;stroke-linecap:square;"
           id="circle235" /></g><text
         x="3265.86px"
         y="2699.28px"
         style="font-family:'ArialMT', 'Arial', sans-serif;font-size:286.779px;stroke:#63112e;stroke-width:1px;stroke-linecap:butt;stroke-miterlimit:2;"
         id="text238">L</text><text
         x="10579.3px"
         y="2699.28px"
         style="font-family:'ArialMT', 'Arial', sans-serif;font-size:286.779px;stroke:#63112e;stroke-width:1px;stroke-linecap:butt;stroke-miterlimit:2;"
         id="text240">R</text></g></g></svg>
