<?xml version="1.0" encoding="UTF-8" standalone="no"?>
<svg
   width="100%"
   height="100%"
   viewBox="0 0 14044 9934"
   version="1.1"
   xml:space="preserve"
   style="fill-rule:evenodd;clip-rule:evenodd;stroke-linecap:round;stroke-linejoin:round;stroke-miterlimit:1.5;"
   id="svg207"
   sodipodi:docname="Digital.svg"
   inkscape:version="1.1 (c68e22c387, 2021-05-23)"
   xmlns:inkscape="http://www.inkscape.org/namespaces/inkscape"
   xmlns:sodipodi="http://sodipodi.sourceforge.net/DTD/sodipodi-0.dtd"
   xmlns="http://www.w3.org/2000/svg"
   xmlns:svg="http://www.w3.org/2000/svg"
   xmlns:serif="http://www.serif.com/"><defs
     id="defs211" /><sodipodi:namedview
     id="namedview209"
     pagecolor="#ffffff"
     bordercolor="#999999"
     borderopacity="1"
     inkscape:pageshadow="0"
     inkscape:pageopacity="0"
     inkscape:pagecheckerboard="0"
     showgrid="false"
     inkscape:zoom="0.063317898"
     inkscape:cx="7028.0286"
     inkscape:cy="4967"
     inkscape:window-width="1920"
     inkscape:window-height="1057"
     inkscape:window-x="1912"
     inkscape:window-y="-8"
     inkscape:window-maximized="1"
     inkscape:current-layer="svg207" /><g
     id="g327"><path
       id="Base--Background-"
       serif:id="Base (Background)"
       d="M5465.29,6534c-405.109,0 -443.787,14.871 -511.634,86.341c-126.362,133.108 -912.097,1142.92 -1458.75,1855.75c-546.654,712.834 -1177.32,754.202 -1824,323c-646.677,-431.203 -497.113,-1201.6 -456,-1508c41.114,-306.399 188.619,-1499.22 238,-1781c49.382,-281.783 100.638,-1065.49 193,-1437c92.363,-371.512 158.273,-1152.75 553,-1607c394.728,-454.247 473.661,-678.27 584,-954c110.34,-275.731 33.858,-605 1146,-605c1112.14,-0 831.23,848.344 1012,1019c346.272,166.412 398,417 398,417l3436.41,-0c-0,-0 51.728,-250.588 398,-417c180.77,-170.656 -100.143,-1019 1012,-1019c1112.14,-0 1035.66,329.269 1146,605c110.34,275.73 189.273,499.753 584,954c394.727,454.246 460.637,1235.49 553,1607c92.363,371.511 143.618,1155.22 193,1437c49.382,281.782 196.886,1474.6 238,1781c41.114,306.398 190.678,1076.8 -456,1508c-646.678,431.202 -1277.35,389.834 -1824,-323c-487.936,-636.268 -1166.35,-1509.14 -1396.32,-1783.97c-27.675,-33.073 -48.855,-57.486 -62.428,-71.783c-60.507,-63.738 -98.797,-86.341 -392.561,-86.341l-3302.71,0Z"
       style="fill:#b3b3b3;stroke:#000;stroke-width:62.5px;" /><g
       id="Base"><path
         d="M2079.91,3661.09c0,-0 205.726,-169.78 295,-296.752c52.939,-105.72 53.861,-485.219 88,-583.248c34.14,-98.03 124.145,-452 988,-452c863.856,-0 933.092,200.612 1047,584c113.909,383.387 82.114,526 816,526l1912.65,-0"
         style="fill:none;stroke:#000;stroke-width:20.83px;"
         id="path3" /><path
         d="M12034.3,3661.09c-0,-0 -205.726,-169.78 -295,-296.752c-52.938,-105.72 -53.86,-485.219 -88,-583.248c-34.14,-98.03 -124.145,-452 -988,-452c-863.855,-0 -933.091,200.612 -1047,584c-113.909,383.387 -82.114,526 -816,526l-1912.65,-0"
         style="fill:none;stroke:#000;stroke-width:20.83px;"
         id="path5" /><path
         d="M2339.91,3236.09l251,-1086c0,-0 80.11,-386 1069,-386c988.891,-0 1053,678.557 1053,806c0,127.442 -14.803,222 214,222l2299.65,-0"
         style="fill:none;stroke:#000;stroke-width:20.83px;"
         id="path7" /><path
         d="M11774.3,3236.09l-251,-1086c-0,-0 -80.109,-386 -1069,-386c-988.891,-0 -1053,678.557 -1053,806c-0,127.442 14.804,222 -214,222l-2299.65,-0"
         style="fill:none;stroke:#000;stroke-width:20.83px;"
         id="path9" /><path
         d="M4674.91,3265.09l254,-1257"
         style="fill:none;stroke:#000;stroke-width:20.83px;"
         id="path11" /><path
         d="M9439.31,3265.09l-254,-1257"
         style="fill:none;stroke:#000;stroke-width:20.83px;"
         id="path13" /><path
         d="M4883.91,2704.09l404,-311"
         style="fill:none;stroke:#000;stroke-width:20.83px;"
         id="path15" /><path
         d="M9230.31,2704.09l-404,-311"
         style="fill:none;stroke:#000;stroke-width:20.83px;"
         id="path17" /><path
         d="M4820.91,2913.09l154,445"
         style="fill:none;stroke:#000;stroke-width:20.83px;"
         id="path19" /><path
         d="M9293.31,2913.09l-154,445"
         style="fill:none;stroke:#000;stroke-width:20.83px;"
         id="path21" /><path
         d="M2461.91,2736.09c0,-0 -530.356,346.987 -727,968"
         style="fill:none;stroke:#000;stroke-width:20.83px;"
         id="path23" /><path
         d="M11652.3,2736.09c-0,-0 530.357,346.987 727,968"
         style="fill:none;stroke:#000;stroke-width:20.83px;"
         id="path25" /><path
         d="M2592.91,2143.09l67,-345"
         style="fill:none;stroke:#000;stroke-width:20.83px;"
         id="path27" /><path
         d="M11521.3,2143.09l-67,-345"
         style="fill:none;stroke:#000;stroke-width:20.83px;"
         id="path29" /><path
         d="M3629.91,8163.09l970,-1409"
         style="fill:none;stroke:#000;stroke-width:20.83px;"
         id="path31" /><path
         d="M10484.3,8163.09l-970,-1409"
         style="fill:none;stroke:#000;stroke-width:20.83px;"
         id="path33" /><path
         d="M5159.65,6442l3724,0"
         style="fill:none;stroke:#000;stroke-width:20.83px;"
         id="path35" /><circle
         cx="3556.91"
         cy="4991.63"
         r="1920"
         style="fill:none;stroke:#000;stroke-width:41.67px;"
         id="circle37" /><circle
         cx="10557.3"
         cy="4991.63"
         r="1920"
         style="fill:none;stroke:#000;stroke-width:41.67px;"
         id="circle39" /><path
         d="M4069.02,4447.63l-0,-986.947c-0,-53.208 -43.133,-96.34 -96.34,-96.34l-895.32,-0c-53.207,-0 -96.34,43.132 -96.34,96.34l-0,986.947l-987.66,-0c-25.551,-0 -50.055,10.15 -68.123,28.217c-18.067,18.068 -28.217,42.572 -28.217,68.123l-0,895.32c-0,25.551 10.15,50.055 28.217,68.123c18.068,18.067 42.572,28.217 68.123,28.217l987.66,-0l-0,988.372c-0,25.551 10.15,50.056 28.217,68.123c18.068,18.067 42.572,28.218 68.123,28.218l895.32,-0c25.551,-0 50.055,-10.151 68.123,-28.218c18.067,-18.067 28.217,-42.572 28.217,-68.123l-0,-988.372l987.66,-0c25.551,-0 50.055,-10.15 68.123,-28.217c18.067,-18.068 28.217,-42.572 28.217,-68.123l-0,-895.32c-0,-25.551 -10.15,-50.055 -28.217,-68.123c-18.068,-18.067 -42.572,-28.217 -68.123,-28.217l-987.66,-0Z"
         style="fill:none;stroke:#000;stroke-width:41.67px;"
         id="path41" /><path
         d="M10045.2,4447.63c0,-0 0,-721.659 0,-986.947c0,-53.208 43.133,-96.34 96.341,-96.34c206.346,-0 688.973,-0 895.319,-0c53.208,-0 96.34,43.132 96.34,96.34l0,986.947l987.66,-0c25.551,-0 50.056,10.15 68.123,28.217c18.067,18.068 28.217,42.572 28.217,68.123c0,206.347 0,688.973 0,895.32c0,25.551 -10.15,50.055 -28.217,68.123c-18.067,18.067 -42.572,28.217 -68.123,28.217c-265.411,-0 -987.66,-0 -987.66,-0c0,-0 0,722.838 0,988.372c0,25.551 -10.15,50.056 -28.217,68.123c-18.067,18.067 -42.572,28.218 -68.123,28.218l-895.319,-0c-25.551,-0 -50.056,-10.151 -68.123,-28.218c-18.067,-18.067 -28.218,-42.572 -28.218,-68.123l0,-988.372l-987.659,-0c-25.551,-0 -50.056,-10.15 -68.123,-28.217c-18.067,-18.068 -28.218,-42.572 -28.218,-68.123l0,-895.32c0,-25.551 10.151,-50.055 28.218,-68.123c18.067,-18.067 42.572,-28.217 68.123,-28.217l987.659,-0Z"
         style="fill:none;stroke:#000;stroke-width:41.67px;"
         id="path43" /></g><g
       id="Duckstation-Logo"
       serif:id="Duckstation Logo"><path
         d="M6547.88,5164.41c-0,14.441 -2.931,25.74 -8.793,33.895c-5.861,8.156 -15.673,12.234 -29.436,12.234l-70.34,-0l0,-178.655l70.34,0c13.763,0 23.575,4.12 29.436,12.361c5.862,8.24 8.793,19.921 8.793,35.043l-0,85.122Zm-26.76,-85.122c-0,-12.403 -1.529,-20.856 -4.587,-25.359c-3.059,-4.502 -8.071,-6.753 -15.037,-6.753l-35.425,-0l-0,148.071l35.425,0c6.966,0 11.978,-2.548 15.037,-7.646c3.058,-5.097 4.587,-12.827 4.587,-23.191l-0,-85.122Z"
         style="fill-rule:nonzero;stroke:#000;stroke-width:1px;stroke-linecap:butt;stroke-miterlimit:2;"
         id="path46" /><path
         d="M6651.35,5195.25l0,-126.154l25.996,0l-0,141.446l-68.557,-0c-7.645,-0 -13.932,-0.765 -18.859,-2.294c-4.927,-1.529 -8.877,-4.035 -11.851,-7.518c-2.973,-3.483 -5.012,-7.943 -6.116,-13.38c-1.105,-5.437 -1.657,-12.149 -1.657,-20.134l0,-98.12l25.996,0l-0,99.139c-0,5.607 0.297,10.195 0.892,13.763c0.594,3.568 1.656,6.329 3.185,8.282c1.529,1.954 3.696,3.271 6.499,3.951c2.803,0.679 6.499,1.019 11.086,1.019l33.386,0Z"
         style="fill-rule:nonzero;stroke:#000;stroke-width:1px;stroke-linecap:butt;stroke-miterlimit:2;"
         id="path48" /><path
         d="M6726.78,5168.23c-0,5.607 0.297,10.195 0.892,13.763c0.595,3.568 1.656,6.329 3.186,8.282c1.529,1.954 3.695,3.271 6.498,3.951c2.804,0.679 6.499,1.019 11.087,1.019l40.267,0l-0,15.292l-49.442,-0c-7.646,-0 -13.932,-0.765 -18.86,-2.294c-4.927,-1.529 -8.877,-4.035 -11.85,-7.518c-2.974,-3.483 -5.012,-7.943 -6.117,-13.38c-1.104,-5.437 -1.656,-12.149 -1.656,-20.134l-0,-54.794c-0,-7.816 0.552,-14.484 1.656,-20.006c1.105,-5.522 3.143,-10.025 6.117,-13.508c2.973,-3.483 6.923,-5.989 11.85,-7.518c4.928,-1.529 11.214,-2.294 18.86,-2.294l49.442,0l-0,15.292l-40.267,-0c-4.588,-0 -8.283,0.34 -11.087,1.019c-2.803,0.68 -4.969,1.996 -6.498,3.95c-1.53,1.954 -2.591,4.715 -3.186,8.283c-0.595,3.568 -0.892,8.156 -0.892,13.762l-0,56.833Z"
         style="fill-rule:nonzero;stroke:#000;stroke-width:1px;stroke-linecap:butt;stroke-miterlimit:2;"
         id="path50" /><path
         d="M6909.01,5210.54l-30.838,-0l-44.09,-78.751l0,78.751l-25.995,-0l0,-183.752l25.995,0l0,97.61l48.933,-55.304l19.879,0l-45.11,51.481l51.226,89.965Z"
         style="fill-rule:nonzero;stroke:#000;stroke-width:1px;stroke-linecap:butt;stroke-miterlimit:2;"
         id="path52" /><path
         d="M7020.12,5156.76c0,18.519 -3.143,32.112 -9.429,40.777c-6.287,8.665 -16.991,12.998 -32.112,12.998l-57.088,-0l0,-15.292l51.991,0c3.568,0 6.753,-0.425 9.557,-1.274c2.803,-0.85 5.097,-2.549 6.881,-5.097c1.784,-2.549 3.143,-6.074 4.078,-10.577c0.934,-4.502 1.401,-10.406 1.401,-17.712c0,-6.287 -0.339,-11.426 -1.019,-15.419c-0.68,-3.993 -1.911,-7.051 -3.695,-9.175c-1.784,-2.124 -4.248,-3.568 -7.391,-4.332c-3.144,-0.765 -7.264,-1.147 -12.361,-1.147l-19.369,-0c-6.456,-0 -11.893,-0.85 -16.311,-2.549c-4.417,-1.699 -7.985,-4.46 -10.704,-8.283c-2.718,-3.823 -4.672,-8.835 -5.861,-15.036c-1.19,-6.202 -1.784,-13.89 -1.784,-23.065c-0,-15.631 2.93,-27.822 8.792,-36.572c5.862,-8.75 16.014,-13.125 30.455,-13.125l49.697,0l0,15.292l-43.325,-0c-3.568,-0 -6.626,0.467 -9.175,1.401c-2.548,0.935 -4.715,2.549 -6.499,4.843c-1.784,2.293 -3.101,5.437 -3.95,9.429c-0.85,3.993 -1.274,9.048 -1.274,15.164c-0,5.947 0.255,10.832 0.764,14.655c0.51,3.822 1.487,6.796 2.931,8.919c1.444,2.124 3.526,3.611 6.244,4.46c2.719,0.85 6.371,1.275 10.959,1.275l18.095,-0c6.796,-0 12.7,0.679 17.712,2.039c5.012,1.359 9.133,3.822 12.361,7.39c3.228,3.568 5.607,8.581 7.136,15.037c1.529,6.456 2.293,14.782 2.293,24.976Z"
         style="fill-rule:nonzero;stroke:#000;stroke-width:1px;stroke-linecap:butt;stroke-miterlimit:2;"
         id="path54" /><path
         d="M7100.15,5084.39l-35.425,-0l0,90.219c0,8.155 1.147,13.635 3.441,16.438c2.294,2.803 6.753,4.205 13.38,4.205l11.468,0l0,15.292l-21.917,-0c-6.117,-0 -11.256,-0.85 -15.419,-2.549c-4.163,-1.699 -7.476,-4.078 -9.94,-7.136c-2.463,-3.058 -4.247,-6.669 -5.352,-10.831c-1.104,-4.163 -1.656,-8.708 -1.656,-13.635l-0,-144.504l25.995,0l0,37.209l35.425,0l0,15.292Z"
         style="fill-rule:nonzero;stroke:#000;stroke-width:1px;stroke-linecap:butt;stroke-miterlimit:2;"
         id="path56" /><path
         d="M7166.16,5125.67l0,14.782l-10.959,0c-4.587,0 -8.283,0.34 -11.086,1.019c-2.803,0.68 -4.97,1.742 -6.499,3.186c-1.529,1.444 -2.591,3.356 -3.186,5.734c-0.594,2.379 -0.892,5.352 -0.892,8.92l0,16.311c0,3.908 0.298,7.094 0.892,9.557c0.595,2.464 1.657,4.46 3.186,5.989c1.529,1.53 3.696,2.591 6.499,3.186c2.803,0.595 6.499,0.892 11.086,0.892l28.799,0l-0,-83.848c-0,-5.606 -0.297,-10.194 -0.892,-13.762c-0.595,-3.568 -1.657,-6.329 -3.186,-8.283c-1.529,-1.954 -3.695,-3.27 -6.499,-3.95c-2.803,-0.679 -6.498,-1.019 -11.086,-1.019l-36.699,-0l-0,-15.292l45.874,0c7.646,0 13.932,0.765 18.859,2.294c4.928,1.529 8.878,4.035 11.851,7.518c2.973,3.483 5.012,7.986 6.117,13.508c1.104,5.522 1.656,12.19 1.656,20.006l0,98.12l-63.969,-0c-7.645,-0 -13.932,-0.723 -18.859,-2.167c-4.927,-1.444 -8.877,-3.568 -11.851,-6.371c-2.973,-2.804 -5.012,-6.287 -6.116,-10.449c-1.105,-4.163 -1.657,-8.963 -1.657,-14.4l0,-18.094c0,-5.437 0.552,-10.237 1.657,-14.4c1.104,-4.162 3.143,-7.645 6.116,-10.449c2.974,-2.803 6.924,-4.927 11.851,-6.371c4.927,-1.445 11.214,-2.167 18.859,-2.167l20.134,0Z"
         style="fill-rule:nonzero;stroke:#000;stroke-width:1px;stroke-linecap:butt;stroke-miterlimit:2;"
         id="path58" /><path
         d="M7294.86,5084.39l-35.425,-0l0,90.219c0,8.155 1.147,13.635 3.441,16.438c2.294,2.803 6.754,4.205 13.38,4.205l11.468,0l0,15.292l-21.917,-0c-6.117,-0 -11.256,-0.85 -15.419,-2.549c-4.163,-1.699 -7.476,-4.078 -9.939,-7.136c-2.464,-3.058 -4.248,-6.669 -5.352,-10.831c-1.105,-4.163 -1.657,-8.708 -1.657,-13.635l0,-144.504l25.995,0l0,37.209l35.425,0l0,15.292Z"
         style="fill-rule:nonzero;stroke:#000;stroke-width:1px;stroke-linecap:butt;stroke-miterlimit:2;"
         id="path60" /><path
         d="M7337.17,5210.54l-25.996,-0l0,-141.446l25.996,0l-0,141.446Zm-0,-159.54l-25.996,-0l0,-24.467l25.996,0l-0,24.467Z"
         style="fill-rule:nonzero;stroke:#000;stroke-width:1px;stroke-linecap:butt;stroke-miterlimit:2;"
         id="path62" /><path
         d="M7433.76,5069.09c7.646,0 13.932,0.765 18.859,2.294c4.928,1.529 8.878,4.035 11.851,7.518c2.974,3.483 5.012,7.986 6.117,13.508c1.104,5.522 1.656,12.19 1.656,20.006l0,54.794c0,7.985 -0.552,14.697 -1.656,20.134c-1.105,5.437 -3.143,9.897 -6.117,13.38c-2.973,3.483 -6.923,5.989 -11.851,7.518c-4.927,1.529 -11.213,2.294 -18.859,2.294l-34.151,-0c-7.645,-0 -13.932,-0.765 -18.859,-2.294c-4.927,-1.529 -8.878,-4.035 -11.851,-7.518c-2.973,-3.483 -5.012,-7.943 -6.116,-13.38c-1.105,-5.437 -1.657,-12.149 -1.657,-20.134l0,-54.794c0,-7.816 0.552,-14.484 1.657,-20.006c1.104,-5.522 3.143,-10.025 6.116,-13.508c2.973,-3.483 6.924,-5.989 11.851,-7.518c4.927,-1.529 11.214,-2.294 18.859,-2.294l34.151,0Zm-46.639,99.139c0,5.607 0.298,10.195 0.892,13.763c0.595,3.568 1.657,6.329 3.186,8.282c1.529,1.954 3.695,3.271 6.499,3.951c2.803,0.679 6.499,1.019 11.086,1.019l15.801,0c4.588,0 8.283,-0.34 11.086,-1.019c2.804,-0.68 4.97,-1.997 6.499,-3.951c1.529,-1.953 2.591,-4.714 3.186,-8.282c0.595,-3.568 0.892,-8.156 0.892,-13.763l0,-56.833c0,-5.606 -0.297,-10.194 -0.892,-13.762c-0.595,-3.568 -1.657,-6.329 -3.186,-8.283c-1.529,-1.954 -3.695,-3.27 -6.499,-3.95c-2.803,-0.679 -6.498,-1.019 -11.086,-1.019l-15.801,-0c-4.587,-0 -8.283,0.34 -11.086,1.019c-2.804,0.68 -4.97,1.996 -6.499,3.95c-1.529,1.954 -2.591,4.715 -3.186,8.283c-0.594,3.568 -0.892,8.156 -0.892,13.762l0,56.833Z"
         style="fill-rule:nonzero;stroke:#000;stroke-width:1px;stroke-linecap:butt;stroke-miterlimit:2;"
         id="path64" /><path
         d="M7521.68,5084.39l0,126.154l-25.995,-0l0,-141.446l69.831,0c7.645,0 13.932,0.765 18.859,2.294c4.927,1.529 8.878,4.035 11.851,7.518c2.973,3.483 5.012,7.986 6.116,13.508c1.105,5.522 1.657,12.19 1.657,20.006l-0,98.12l-25.995,-0l-0,-99.14c-0,-5.606 -0.298,-10.194 -0.892,-13.762c-0.595,-3.568 -1.657,-6.329 -3.186,-8.283c-1.529,-1.954 -3.695,-3.27 -6.499,-3.95c-2.803,-0.679 -6.499,-1.019 -11.086,-1.019l-34.661,-0Z"
         style="fill-rule:nonzero;stroke:#000;stroke-width:1px;stroke-linecap:butt;stroke-miterlimit:2;"
         id="path66" /><g
         id="Duck"><path
           d="M7003.84,4795.95l-58.35,35.385"
           style="fill:none;stroke:#000;stroke-width:20.83px;"
           id="path68" /><path
           d="M6945.49,4715.11l-0,48.976l58.35,31.87l-0,70.067l-58.35,33.979"
           style="fill:none;stroke:#000;stroke-width:20.83px;"
           id="path70" /><path
           d="M7123.82,4609.89l-0,48.976l57.764,31.987"
           style="fill:none;stroke:#000;stroke-width:20.83px;"
           id="path72" /><path
           d="M7003.84,4682.07l-0,46.516l118.809,67.372l58.936,-33.041l-0,-69.598l-59.639,35.267l-61.162,-36.673l-0,-44.29"
           style="fill:none;stroke:#000;stroke-width:20.83px;"
           id="path74" /><path
           d="M6826.45,4675.04l-0,154.663l119.043,70.301l-0,-68.895l-61.162,-35.854l-0,-85.064"
           style="fill:none;stroke:#000;stroke-width:20.83px;"
           id="path76" /><path
           d="M6703.31,3977.65l93.97,-54.484"
           style="fill:none;stroke:#000;stroke-width:20.83px;"
           id="path78" /><path
           d="M6613.32,3923.16l89.985,-51.671l93.97,51.671l-0,103.46"
           style="fill:none;stroke:#000;stroke-width:20.83px;"
           id="path80" /><path
           d="M6703.31,4081.11l0,-104.398l-89.985,-53.546l-0,109.319l83.658,53.077"
           style="fill:none;stroke:#000;stroke-width:20.83px;"
           id="path82" /><path
           d="M7094.88,4431.44l82.252,-49.328"
           style="fill:none;stroke:#000;stroke-width:20.83px;"
           id="path84" /><path
           d="M7154.29,4311.23l0,56.552l146.461,85.222l0,-56.71"
           style="fill:none;stroke:#000;stroke-width:20.83px;"
           id="path86" /><path
           d="M7301.8,4226.16l-147.516,85.885l147.164,84.244l145.758,-84.596l-145.406,-85.533Z"
           style="fill:none;stroke:#000;stroke-width:20.83px;"
           id="path88" /><path
           d="M6920.19,4728.58l324.088,-190.164l-0,-117.755"
           style="fill:none;stroke:#000;stroke-width:20.83px;"
           id="path90" /><path
           d="M6596.1,4146.25l248.632,-145.875"
           style="fill:none;stroke:#000;stroke-width:20.83px;"
           id="path92" /><path
           d="M6920.19,4332.12l-0,396.458l-324.089,-188.201l0,-394.127l324.089,185.87Z"
           style="fill:none;stroke:#000;stroke-width:20.83px;"
           id="path94" /><path
           d="M7094.88,4125.98l250.155,-146.695"
           style="fill:none;stroke:#000;stroke-width:20.83px;"
           id="path96" /><g
           id="Camada2"><path
             d="M6844.73,4287.68l-0,-308.857l250.155,-144.82l250.155,145.641l-0,271.714"
             style="fill:none;stroke:#000;stroke-width:20.83px;"
             id="path98" /><path
             d="M6844.73,4287.68l250.155,143.766l-0,-304.053l-250.155,-148.101"
             style="fill:none;stroke:#000;stroke-width:20.83px;"
             id="path100" /></g><path
           d="M7300.75,4453l146.461,-85.222l-0,-56.552"
           style="fill:none;stroke:#000;stroke-width:20.83px;"
           id="path103" /><path
           d="M7123.82,4728.23l-0,67.723"
           style="fill:none;stroke:#000;stroke-width:20.83px;"
           id="path105" /><path
           d="M6885.97,4795.95l59.522,-33.861"
           style="fill:none;stroke:#000;stroke-width:20.83px;"
           id="path107" /><path
           d="M7062.08,4691.44l61.748,-33.159"
           style="fill:none;stroke:#000;stroke-width:20.83px;"
           id="path109" /><path
           d="M7130.74,4227.22l-0,59.639l50.851,-28.707l-0,-60.107l-50.851,29.175Z"
           style="fill:none;stroke:#000;stroke-width:20.83px;"
           id="path111" /><path
           d="M7258.45,4155.63l0,59.639l50.851,-28.707l0,-60.107l-50.851,29.175Z"
           style="fill:none;stroke:#000;stroke-width:20.83px;"
           id="path113" /></g></g><g
       id="Controle"><g
         id="D-Pad"><g
           id="D-Pad1"
           serif:id="D-Pad"><g
             id="Botões"><path
               d="M3931.66,5295.54c22.468,25.431 54.769,39.995 88.703,39.995c96.047,0 300.757,0 437.818,0c36.02,0 70.565,-14.309 96.035,-39.779c25.47,-25.47 39.779,-60.015 39.779,-96.035l0,-466.371c0,-36.02 -14.309,-70.565 -39.779,-96.035c-25.47,-25.471 -60.015,-39.78 -96.035,-39.78l-437.818,0c-33.934,0 -66.235,14.565 -88.703,39.996c-60.337,68.296 -183.002,207.14 -248.009,280.722c-24.364,27.578 -24.364,68.987 -0,96.565c65.007,73.582 187.672,212.426 248.009,280.722Z"
               style="fill:#595959;stroke:#404040;stroke-width:41.67px;"
               id="path117" /><path
               d="M3182.99,5386.2c-25.43,22.467 -39.995,54.769 -39.995,88.702c0,96.048 0,300.758 0,437.818c-0,36.02 14.309,70.565 39.779,96.035c25.47,25.47 60.015,39.779 96.035,39.779l466.372,0c36.02,0 70.565,-14.309 96.035,-39.779c25.47,-25.47 39.779,-60.015 39.779,-96.035l0,-437.818c0,-33.933 -14.565,-66.235 -39.995,-88.702c-68.297,-60.338 -207.141,-183.002 -280.723,-248.01c-27.578,-24.364 -68.986,-24.364 -96.564,0c-73.582,65.008 -212.426,187.672 -280.723,248.01Z"
               style="fill:#595959;stroke:#404040;stroke-width:41.67px;"
               id="path119" /><path
               d="M3092.34,5295.54c-22.468,25.431 -54.769,39.995 -88.703,39.995c-96.047,0 -300.757,0 -437.818,0c-36.02,0 -70.565,-14.309 -96.035,-39.779c-25.47,-25.47 -39.779,-60.015 -39.779,-96.035l-0,-466.371c-0,-36.02 14.309,-70.565 39.779,-96.035c25.47,-25.471 60.015,-39.78 96.035,-39.78l437.818,0c33.934,0 66.235,14.565 88.703,39.996c60.337,68.296 183.002,207.14 248.009,280.722c24.364,27.578 24.364,68.987 0,96.565c-65.007,73.582 -187.672,212.426 -248.009,280.722Z"
               style="fill:#595959;stroke:#404040;stroke-width:41.67px;"
               id="path121" /><path
               d="M3182.99,4546.87c-25.43,-22.467 -39.995,-54.769 -39.995,-88.703l0,-437.817c-0,-36.02 14.309,-70.565 39.779,-96.035c25.47,-25.471 60.015,-39.78 96.035,-39.78l466.372,0c36.02,0 70.565,14.309 96.035,39.78c25.47,25.47 39.779,60.015 39.779,96.035l0,437.817c0,33.934 -14.565,66.236 -39.995,88.703c-68.297,60.338 -207.141,183.002 -280.723,248.01c-27.578,24.364 -68.986,24.364 -96.564,-0c-73.582,-65.008 -212.426,-187.672 -280.723,-248.01Z"
               style="fill:#595959;stroke:#404040;stroke-width:41.67px;"
               id="path123" /></g><path
             d="M4971,4992.34l-232,262l0,-524l232,262Z"
             style="fill:none;stroke:#000;stroke-width:20.83px;"
             id="path126" /><path
             d="M2053,4992.34l232,262l-0,-524l-232,262Z"
             style="fill:none;stroke:#000;stroke-width:20.83px;"
             id="path128" /><path
             d="M3512,6451.34l-262,-232l524,-0l-262,232Z"
             style="fill:none;stroke:#000;stroke-width:20.83px;"
             id="path130" /><path
             d="M3512,3533.34l-262,232l524,-0l-262,-232Z"
             style="fill:none;stroke:#000;stroke-width:20.83px;"
             id="path132" /></g></g><g
         id="Botões1"
         serif:id="Botões"><path
           id="L1"
           d="M3716.46,1657.09c-224.79,-5.299 -789,-13 -874,310c-131.822,500.923 -48.891,239 708,239c756.89,-0 803.273,397.046 917,-90c92,-394 -454,-452 -751,-459Z"
           style="fill:#595959;stroke:#404040;stroke-width:41.67px;" /><g
           transform="matrix(-0.984917,-0.173029,0.173029,-0.984917,12490.4,9545.14)"
           id="g139"><text
             x="10012.2px"
             y="6134.16px"
             style="font-family:'Arial-BoldMT', 'Arial', sans-serif;font-weight:700;font-size:261.061px;fill:#e0e0e0;"
             id="text137">1</text></g><path
           id="R1"
           d="M10397.8,1657.09c224.789,-5.299 789,-13 874,310c131.822,500.923 48.891,239 -708,239c-756.891,-0 -803.274,397.046 -917,-90c-92,-394 454,-452 751,-459Z"
           style="fill:#595959;stroke:#404040;stroke-width:41.67px;" /><g
           transform="matrix(-0.984808,0.173648,-0.173648,-0.984808,28543,3539.01)"
           id="g144"><text
             x="17467.7px"
             y="4924.1px"
             style="font-family:'Arial-BoldMT', 'Arial', sans-serif;font-weight:700;font-size:261.061px;fill:#e0e0e0;"
             id="text142">1</text></g><path
           id="L2"
           d="M3896.92,989.163c-224.789,-4.999 -789,-12.266 -874,292.496c-131.822,472.639 -48.891,225.505 708,225.505c756.891,-0 803.274,374.627 917,-84.919c92,-371.753 -454,-426.478 -751,-433.082Z"
           style="fill:#595959;stroke:#404040;stroke-width:41.67px;" /><g
           transform="matrix(-0.992546,-0.121869,0.121869,-0.992546,13429,7704.48)"
           id="g149"><text
             x="10301.1px"
             y="5347.56px"
             style="font-family:'Arial-BoldMT', 'Arial', sans-serif;font-weight:700;font-size:261.061px;fill:#e0e0e0;"
             id="text147">2</text></g><path
           id="R2"
           d="M10217.3,989.163c224.79,-4.999 789,-12.266 874,292.496c131.822,472.639 48.891,225.505 -708,225.505c-756.891,-0 -803.273,374.627 -917,-84.919c-92,-371.753 454,-426.478 751,-433.082Z"
           style="fill:#595959;stroke:#404040;stroke-width:41.67px;" /><g
           transform="matrix(-0.992546,0.121869,-0.121869,-0.992546,27993.2,3452.28)"
           id="g154"><text
             x="17242px"
             y="4488.21px"
             style="font-family:'Arial-BoldMT', 'Arial', sans-serif;font-weight:700;font-size:261.061px;fill:#e0e0e0;"
             id="text152">2</text></g></g><g
         id="Botões2"
         serif:id="Botões"><circle
           cx="9539.7"
           cy="4992.34"
           r="461.5"
           style="fill:#595959;stroke:#404040;stroke-width:41.67px;"
           id="circle157" /><path
           d="M11050.7,3942.84c0,254.708 -206.791,461.5 -461.5,461.5c-254.708,-0 -461.5,-206.792 -461.5,-461.5c0,-254.709 206.792,-461.5 461.5,-461.5c254.709,-0 461.5,206.791 461.5,461.5Z"
           style="fill:#595959;stroke:#404040;stroke-width:41.67px;"
           id="path159" /><circle
           cx="11638.7"
           cy="4992.34"
           r="461.5"
           style="fill:#595959;stroke:#404040;stroke-width:41.67px;"
           id="circle161" /><path
           d="M11050.7,6041.84c0,254.708 -206.791,461.5 -461.5,461.5c-254.708,-0 -461.5,-206.792 -461.5,-461.5c0,-254.709 206.792,-461.5 461.5,-461.5c254.709,-0 461.5,206.791 461.5,461.5Z"
           style="fill:#595959;stroke:#404040;stroke-width:41.67px;"
           id="path163" /><g
           id="X"><path
             d="M10811.9,5819.15l-445.385,445.385"
             style="fill:none;stroke:#6f97e3;stroke-width:83.33px;"
             id="path165" /><path
             d="M10366.5,5819.15l445.385,445.385"
             style="fill:none;stroke:#6f97e3;stroke-width:83.33px;"
             id="path167" /></g><path
           d="M10589.2,3628.81l252,504l-504,0l252,-504Z"
           style="fill:none;stroke:#7ae0c4;stroke-width:83.33px;"
           id="path170" /><circle
           cx="11638.7"
           cy="4978.68"
           r="305.126"
           style="fill:none;stroke:#ee676b;stroke-width:83.33px;"
           id="circle172" /><rect
           x="9297.17"
           y="4749.81"
           width="485.071"
           height="485.071"
           style="fill:none;stroke:#f37caa;stroke-width:83.33px;"
           id="rect174" /></g><g
         id="Botões-Centrais"
         serif:id="Botões Centrais"><path
           id="Select"
           d="M6604,5599.73c-0,-62.812 -50.919,-113.731 -113.731,-113.731c-121.75,0 -313.788,0 -435.538,0c-62.812,0 -113.731,50.919 -113.731,113.731l-0,173.538c0,62.812 50.919,113.731 113.731,113.731l435.538,0c62.812,-0 113.731,-50.919 113.731,-113.731l-0,-173.538Z"
           style="fill:#595959;stroke:#404040;stroke-width:41.67px;" /><path
           id="Start"
           d="M8078.86,5671.43c18.696,6.583 31.202,24.247 31.202,44.068c0,19.821 -12.506,37.485 -31.202,44.068c-150.687,53.064 -397.808,140.086 -512.618,180.515c-14.296,5.034 -30.146,2.821 -42.516,-5.938c-12.37,-8.758 -19.723,-22.973 -19.723,-38.13c0,-94.325 0,-266.705 0,-361.03c-0,-15.157 7.353,-29.372 19.723,-38.13c12.37,-8.759 28.22,-10.972 42.516,-5.938c114.81,40.429 361.931,127.451 512.618,180.515Z"
           style="fill:#595959;stroke:#404040;stroke-width:41.67px;" /></g><text
         id="L"
         x="3394.97px"
         y="2739.28px"
         style="font-family:'ArialMT', 'Arial', sans-serif;font-size:286.779px;stroke:#63112e;stroke-width:1px;stroke-linecap:butt;stroke-miterlimit:2;">L</text><text
         id="R"
         x="10437.5px"
         y="2739.28px"
         style="font-family:'ArialMT', 'Arial', sans-serif;font-size:286.779px;stroke:#63112e;stroke-width:1px;stroke-linecap:butt;stroke-miterlimit:2;">R</text><g
         id="Select1"
         serif:id="Select"><path
           d="M5701.16,6158.8l39.778,-3.86c2.394,13.328 7.251,23.117 14.571,29.367c7.321,6.25 17.196,9.375 29.627,9.375c13.167,-0 23.089,-2.78 29.765,-8.341c6.676,-5.561 10.013,-12.064 10.013,-19.509c0,-4.78 -1.404,-8.847 -4.212,-12.202c-2.809,-3.355 -7.712,-6.273 -14.71,-8.755c-4.788,-1.654 -15.699,-4.595 -32.734,-8.823c-21.915,-5.423 -37.292,-12.087 -46.132,-19.992c-12.431,-11.121 -18.646,-24.679 -18.646,-40.672c-0,-10.294 2.923,-19.922 8.77,-28.884c5.847,-8.961 14.273,-15.786 25.276,-20.474c11.004,-4.687 24.286,-7.031 39.848,-7.031c25.414,0 44.543,5.561 57.388,16.682c12.845,11.122 19.59,25.966 20.235,44.533l-40.884,1.792c-1.749,-10.386 -5.501,-17.854 -11.256,-22.404c-5.755,-4.55 -14.388,-6.825 -25.898,-6.825c-11.878,0 -21.178,2.436 -27.9,7.308c-4.327,3.125 -6.491,7.307 -6.491,12.546c-0,4.779 2.025,8.87 6.077,12.27c5.156,4.32 17.679,8.824 37.568,13.512c19.89,4.687 34.599,9.536 44.129,14.545c9.531,5.01 16.989,11.857 22.376,20.543c5.386,8.686 8.08,19.417 8.08,32.193c-0,11.581 -3.223,22.427 -9.669,32.538c-6.445,10.11 -15.561,17.624 -27.347,22.542c-11.786,4.917 -26.473,7.376 -44.06,7.376c-25.598,-0 -45.257,-5.906 -58.977,-17.717c-13.72,-11.811 -21.915,-29.022 -24.585,-51.633Z"
           style="fill-rule:nonzero;"
           id="path182" /><path
           d="M5900.19,6224.57l-0,-202.119l150.135,-0l0,34.192l-109.252,-0l-0,44.808l101.656,0l-0,34.054l-101.656,0l-0,55.011l113.12,-0l-0,34.054l-154.003,0Z"
           style="fill-rule:nonzero;"
           id="path184" /><path
           d="M6089.96,6224.57l-0,-200.465l40.883,0l-0,166.411l101.656,-0l-0,34.054l-142.539,0Z"
           style="fill-rule:nonzero;"
           id="path186" /><path
           d="M6261.64,6224.57l-0,-202.119l150.136,-0l-0,34.192l-109.253,-0l0,44.808l101.656,0l0,34.054l-101.656,0l0,55.011l113.12,-0l-0,34.054l-154.003,0Z"
           style="fill-rule:nonzero;"
           id="path188" /><path
           d="M6579.87,6150.25l39.64,12.547c-6.077,22.059 -16.183,38.443 -30.317,49.151c-14.134,10.708 -32.067,16.062 -53.798,16.062c-26.887,-0 -48.986,-9.169 -66.297,-27.505c-17.311,-18.337 -25.966,-43.407 -25.966,-75.209c-0,-33.641 8.701,-59.767 26.104,-78.38c17.403,-18.613 40.285,-27.919 68.646,-27.919c24.769,0 44.888,7.307 60.358,21.922c9.208,8.639 16.114,21.048 20.718,37.225l-40.469,9.651c-2.394,-10.478 -7.39,-18.751 -14.986,-24.817c-7.597,-6.066 -16.828,-9.1 -27.693,-9.1c-15.009,0 -27.187,5.377 -36.533,16.131c-9.346,10.754 -14.019,28.172 -14.019,52.254c0,25.552 4.604,43.751 13.812,54.597c9.208,10.846 21.178,16.268 35.911,16.268c10.866,0 20.212,-3.446 28.038,-10.34c7.827,-6.893 13.444,-17.739 16.851,-32.538Z"
           style="fill-rule:nonzero;"
           id="path190" /><path
           d="M6700.17,6224.57l-0,-167.927l-60.082,-0l-0,-34.192l160.909,-0l0,34.192l-59.944,-0l0,167.927l-40.883,0Z"
           style="fill-rule:nonzero;"
           id="path192" /></g><g
         id="Start1"
         serif:id="Start"><path
           d="M7354.14,6158.8l39.779,-3.86c2.394,13.328 7.251,23.117 14.571,29.367c7.321,6.25 17.196,9.375 29.627,9.375c13.167,-0 23.089,-2.78 29.765,-8.341c6.675,-5.561 10.013,-12.064 10.013,-19.509c0,-4.78 -1.404,-8.847 -4.212,-12.202c-2.809,-3.355 -7.712,-6.273 -14.71,-8.755c-4.788,-1.654 -15.7,-4.595 -32.734,-8.823c-21.915,-5.423 -37.293,-12.087 -46.132,-19.992c-12.431,-11.121 -18.646,-24.679 -18.646,-40.672c-0,-10.294 2.923,-19.922 8.77,-28.884c5.847,-8.961 14.273,-15.786 25.276,-20.474c11.004,-4.687 24.286,-7.031 39.847,-7.031c25.414,0 44.544,5.561 57.389,16.682c12.845,11.122 19.59,25.966 20.235,44.533l-40.884,1.792c-1.749,-10.386 -5.502,-17.854 -11.257,-22.404c-5.754,-4.55 -14.387,-6.825 -25.897,-6.825c-11.878,0 -21.178,2.436 -27.9,7.308c-4.328,3.125 -6.492,7.307 -6.492,12.546c0,4.779 2.026,8.87 6.078,12.27c5.156,4.32 17.679,8.824 37.568,13.512c19.889,4.687 34.599,9.536 44.129,14.545c9.53,5.01 16.989,11.857 22.376,20.543c5.386,8.686 8.08,19.417 8.08,32.193c-0,11.581 -3.223,22.427 -9.669,32.538c-6.445,10.11 -15.561,17.624 -27.347,22.542c-11.787,4.917 -26.473,7.376 -44.061,7.376c-25.598,-0 -45.257,-5.906 -58.976,-17.717c-13.72,-11.811 -21.915,-29.022 -24.586,-51.633Z"
           style="fill-rule:nonzero;"
           id="path195" /><path
           d="M7598.75,6224.57l-0,-167.927l-60.082,-0l-0,-34.192l160.909,-0l-0,34.192l-59.944,-0l0,167.927l-40.883,0Z"
           style="fill-rule:nonzero;"
           id="path197" /><path
           d="M7887.55,6224.57l-44.474,0l-17.679,-45.911l-80.938,-0l-16.713,45.911l-43.369,0l78.866,-202.119l43.231,-0l81.076,202.119Zm-75.275,-79.965l-27.9,-75.002l-27.348,75.002l55.248,-0Z"
           style="fill-rule:nonzero;"
           id="path199" /><path
           d="M7909.38,6224.57l0,-202.119l86.048,-0c21.639,-0 37.362,1.815 47.168,5.446c9.807,3.63 17.657,10.087 23.55,19.371c5.893,9.283 8.839,19.899 8.839,31.848c0,15.166 -4.466,27.689 -13.397,37.57c-8.932,9.881 -22.284,16.108 -40.055,18.681c8.84,5.148 16.137,10.8 21.892,16.959c5.755,6.158 13.513,17.096 23.273,32.813l24.723,39.431l-48.894,0l-29.557,-43.981c-10.497,-15.717 -17.68,-25.621 -21.547,-29.711c-3.867,-4.09 -7.965,-6.894 -12.293,-8.41c-4.327,-1.517 -11.187,-2.275 -20.579,-2.275l-8.288,-0l0,84.377l-40.883,0Zm40.883,-116.639l30.249,-0c19.613,-0 31.859,-0.827 36.739,-2.482c4.881,-1.654 8.702,-4.503 11.464,-8.548c2.763,-4.044 4.144,-9.099 4.144,-15.166c-0,-6.801 -1.819,-12.293 -5.456,-16.475c-3.637,-4.182 -8.77,-6.825 -15.4,-7.928c-3.315,-0.459 -13.26,-0.689 -29.834,-0.689l-31.906,-0l0,51.288Z"
           style="fill-rule:nonzero;"
           id="path201" /><path
           d="M8159.1,6224.57l-0,-167.927l-60.082,-0l0,-34.192l160.909,-0l0,34.192l-59.944,-0l0,167.927l-40.883,0Z"
           style="fill-rule:nonzero;"
           id="path203" /></g></g></g></svg>
