<?xml version="1.0" encoding="UTF-8" standalone="no"?>
<svg
   width="100%"
   height="100%"
   viewBox="0 0 14044 9934"
   version="1.1"
   xml:space="preserve"
   style="fill-rule:evenodd;clip-rule:evenodd;stroke-linecap:round;stroke-linejoin:round;stroke-miterlimit:1.5;"
   id="svg281"
   sodipodi:docname="NamcoGun - DuckStation.svg"
   inkscape:version="1.1 (c68e22c387, 2021-05-23)"
   xmlns:inkscape="http://www.inkscape.org/namespaces/inkscape"
   xmlns:sodipodi="http://sodipodi.sourceforge.net/DTD/sodipodi-0.dtd"
   xmlns="http://www.w3.org/2000/svg"
   xmlns:svg="http://www.w3.org/2000/svg"
   xmlns:serif="http://www.serif.com/"><defs
     id="defs285" /><sodipodi:namedview
     id="namedview283"
     pagecolor="#ffffff"
     bordercolor="#999999"
     borderopacity="1"
     inkscape:pageshadow="0"
     inkscape:pageopacity="0"
     inkscape:pagecheckerboard="0"
     showgrid="false"
     inkscape:zoom="0.063317898"
     inkscape:cx="7028.0286"
     inkscape:cy="4967"
     inkscape:window-width="1920"
     inkscape:window-height="1057"
     inkscape:window-x="1912"
     inkscape:window-y="-8"
     inkscape:window-maximized="1"
     inkscape:current-layer="svg281" /><g
     id="g439"><path
       id="Background"
       d="M2377,2184.1c-115.918,0 -384.008,-4.612 -418,0c-125.303,17 -619.626,1035.52 -467,1139.9c99.068,67.753 138.916,25.61 146,36c7.084,10.39 -167.476,270.784 -30,270c1285.19,-7.332 1014.64,1083.07 978,1154c-249.839,483.616 -654.595,697.598 -1066.55,1946c-288.331,873.757 -418.429,1688.57 117.329,1810.58c17.663,114.63 106.091,419.058 106.091,419.058l1448.14,26.523c-0,0 40.462,-79.966 58.967,-105.215c108.116,19.728 337.905,-136.275 420.469,-423.076c-56.491,-72.787 -76.221,-217.893 -78.937,-321.098c-2.716,-103.205 667.122,-2637.75 667.122,-2637.75c0,0 218.064,-237.27 304.973,-248.134c86.91,-10.864 135.797,-43.455 271.593,5.432c135.796,48.886 879.959,206.41 1333.52,89.625l1516.43,0c-0,0 -2.716,-460.306 27.159,-577.091c59.75,-173.819 95.057,-214.558 706.14,-214.558l-0,153.391l541.67,537.1l213.464,0l36.937,-38.971l356.329,-0l34.764,32.591l123.846,-0l34.764,-45.628l336.774,0l52.146,52.146l106.464,-0l49.973,-58.664l323.738,-0l56.491,58.664l178.164,-0l39.11,-54.319l97.773,0l27.706,48.486l845.331,-0l339.49,-383.624l0,-312.331l149.376,-3.395l64.503,-254.618l203.694,0l0,-1195.34l-246.262,-13.58l0,-350.354l38.023,-35.307l206.41,0l0,-1025.25l-225.877,-13.58c-0,-0 6.789,-278.382 -298.752,-298.751l-146.778,-0c-0,-0 -385.35,-278.924 -404.039,-2.073l-1577.9,0l0,127.598l-4592.07,-0l0,-110.696l-1481.87,-0l-134.02,-168.414l-510.332,-5.562l-73.699,-148.789l-186.334,-13.906l-76.48,326.78c-0,-0 -288.581,13.955 -543.962,826.198Zm4611.32,2319.16c-0,-330.707 -268.493,-599.2 -599.2,-599.2l-1018.47,0c-330.707,0 -599.2,268.493 -599.2,599.2c0,330.707 268.493,599.2 599.2,599.2l1018.47,-0c330.707,-0 599.2,-268.493 599.2,-599.2Z"
       style="fill:#b3b3b3;" /><g
       id="Gatilho"><g
         id="Camada7"><path
           d="M5674.9,3911.33c0,0 -187.103,264.439 -174.629,476.489c12.473,212.05 -29.937,324.312 192.092,623.677l-623.677,-0c0,-0 -162.155,-112.262 -189.597,-169.64c-27.442,-57.378 -114.757,-197.082 -109.767,-301.86c4.989,-104.777 27.442,-269.428 77.336,-341.774c49.894,-72.347 182.113,-239.492 379.195,-279.407c197.082,-39.916 449.047,-7.485 449.047,-7.485Z"
           style="fill:#666;"
           id="path3" /></g><path
         d="M5684,3903c0,-0 -192,206.245 -192,556c0,349.755 206.772,558.685 207,559c0.228,0.315 -626,0 -626,0"
         style="fill:#666;stroke:#404040;stroke-width:41.67px;"
         id="path6" /><circle
         cx="5152"
         cy="4252"
         r="130"
         style="fill:none;stroke:#404040;stroke-width:23.61px;"
         id="circle8" /><circle
         cx="5152"
         cy="4652"
         r="166"
         style="fill:none;stroke:#404040;stroke-width:23.61px;"
         id="circle10" /></g><g
       id="Pistola"><g
         id="Camada1"><path
           d="M2311,2721c136.932,-1352.35 625,-1358 625,-1358l2455,0c0,0 0.312,120.095 0,120c-0.312,-0.095 4583,0 4583,0l0,-122l2132,0c174.137,0 306,138.677 306,351c0,212.323 -6.672,1007.66 -6.672,1007.66c0,-0 -8715.57,1.339 -10094.3,1.339Z"
           style="fill:none;stroke:#000;stroke-width:62.5px;"
           id="path13" /><path
           d="M4583.96,2851.45c5.052,-16.527 1.969,-34.47 -8.31,-48.362c-10.28,-13.891 -26.537,-22.086 -43.819,-22.086c-316.772,0 -1547.08,0 -1547.08,0c0,0 -272.042,889.81 -361.421,1182.15c-6.587,21.546 -2.567,44.939 10.834,63.05c13.402,18.111 34.598,28.795 57.128,28.795l1524.71,0c0,0 286.252,-936.288 367.963,-1203.55Z"
           style="fill:none;stroke:#000;stroke-width:20.83px;"
           id="path15" /><path
           d="M10730,1959.27c0,-34.816 -13.83,-68.205 -38.449,-92.823c-24.618,-24.619 -58.007,-38.449 -92.823,-38.449c-529.595,0 -2505.86,0 -3035.46,0c-34.816,-0 -68.205,13.83 -92.823,38.449c-24.619,24.618 -38.449,58.007 -38.449,92.823l0,362.456c-0,34.816 13.83,68.205 38.449,92.823c24.618,24.619 58.007,38.449 92.823,38.449c529.595,0 2505.86,0 3035.46,0c34.816,0 68.205,-13.83 92.823,-38.449c24.619,-24.618 38.449,-58.007 38.449,-92.823c0,-106.511 0,-255.945 0,-362.456Z"
           style="fill:none;stroke:#000;stroke-width:20.83px;"
           id="path17" /><path
           d="M5867,2992.5c-0,-51.639 -41.861,-93.5 -93.5,-93.5c-199.937,0 -667.063,0 -867,0c-51.639,0 -93.5,41.861 -93.5,93.5l0,0c0,51.639 41.861,93.5 93.5,93.5c199.937,0 667.063,0 867,0c51.639,-0 93.5,-41.861 93.5,-93.5c0,0 0,0 0,-0Z"
           style="fill:none;stroke:#000;stroke-width:20.83px;"
           id="path19" /><path
           d="M3876,2708.14l374,-1063.73"
           style="fill:none;stroke:#000;stroke-width:33.33px;stroke-linecap:butt;"
           id="path21" /><path
           d="M5024,2708.14l374,-1063.73"
           style="fill:none;stroke:#000;stroke-width:33.33px;stroke-linecap:butt;"
           id="path23" /><path
           d="M4256,2708.14l374,-1063.73"
           style="fill:none;stroke:#000;stroke-width:33.33px;stroke-linecap:butt;"
           id="path25" /><path
           d="M5404,2708.14l374,-1063.73"
           style="fill:none;stroke:#000;stroke-width:33.33px;stroke-linecap:butt;"
           id="path27" /><path
           d="M4641,2708.14l374,-1063.73"
           style="fill:none;stroke:#000;stroke-width:33.33px;stroke-linecap:butt;"
           id="path29" /><path
           d="M5789,2708.14l374,-1063.73"
           style="fill:none;stroke:#000;stroke-width:33.33px;stroke-linecap:butt;"
           id="path31" /><path
           d="M4066,2708.14l374,-1063.73"
           style="fill:none;stroke:#000;stroke-width:33.33px;stroke-linecap:butt;"
           id="path33" /><path
           d="M5214,2708.14l374,-1063.73"
           style="fill:none;stroke:#000;stroke-width:33.33px;stroke-linecap:butt;"
           id="path35" /><path
           d="M4446,2708.14l374,-1063.73"
           style="fill:none;stroke:#000;stroke-width:33.33px;stroke-linecap:butt;"
           id="path37" /><path
           d="M5594,2708.14l374,-1063.73"
           style="fill:none;stroke:#000;stroke-width:33.33px;stroke-linecap:butt;"
           id="path39" /><path
           d="M4831,2708.14l374,-1063.73"
           style="fill:none;stroke:#000;stroke-width:33.33px;stroke-linecap:butt;"
           id="path41" /><g
           id="g48"><g
             id="g344" /><g
             id="g348" /><g
             id="g352" /><path
             d="M6990.65,4501.5c-0.001,-330.543 -267.958,-598.5 -598.5,-598.5c-317.689,0 -706.966,0 -1024.65,0c-330.542,0 -598.5,267.958 -598.5,598.5l0,0c0,330.543 267.958,598.5 598.5,598.5c317.688,0 706.965,0 1024.65,0c330.542,-0 598.499,-267.957 598.5,-598.5c-0,0 -0,0 -0,-0Z"
             style="fill:none;stroke:#000;stroke-width:52.12px;"
             id="path46" /></g><path
           d="M4548.03,3601.27l1357,0l240,-752c-0,0 9.384,-52 -60,-52l-1121,0"
           style="fill:none;stroke:#000;stroke-width:23.61px;"
           id="path50" /><circle
           cx="7209.65"
           cy="2930"
           r="183"
           style="fill:none;stroke:#000;stroke-width:23.61px;"
           id="circle52" /><circle
           cx="7545.5"
           cy="3267.5"
           r="90.5"
           style="fill:none;stroke:#000;stroke-width:23.61px;"
           id="circle54" /><circle
           cx="7328.5"
           cy="3983.5"
           r="106.5"
           style="fill:none;stroke:#000;stroke-width:23.61px;"
           id="circle56" /><path
           d="M2620.22,1646l9791.78,0"
           style="fill:none;stroke:#000;stroke-width:23.61px;"
           id="path58" /><path
           d="M6749,1646l0,1002c0,0 4.592,61 -137,61"
           style="fill:none;stroke:#000;stroke-width:23.61px;"
           id="path60" /><path
           d="M4481.31,4655c140.745,37.052 224.931,181.4 187.879,322.144c-37.051,140.745 -181.399,224.931 -322.144,187.879"
           style="fill:none;stroke:#000;stroke-width:33.33px;"
           id="path62" /><path
           d="M2735.59,4089.2c0,-0 158.497,131.158 158.497,474.451c0,343.293 -317.691,498.194 -486.852,766.13c-169.16,267.936 -505.604,808.636 -717.054,1567.44c-211.451,758.803 -184.633,1082.21 -184.633,1186.87c0,104.662 24.756,175.833 313.566,175.833l1050.61,-0c-0,-0 147.195,8.678 195.245,-120.876c52.613,-141.856 1125.71,-4044.26 1125.71,-4044.26c-0,0 6.077,-39.66 -41.242,-39.66l-1399.28,-0c0,-0 -46.44,3.282 -14.562,34.068Z"
           style="fill:none;stroke:#000;stroke-width:20.83px;"
           id="path64" /><rect
           x="2219.86"
           y="2770.66"
           width="491.942"
           height="117.904"
           style="fill:none;stroke:#000;stroke-width:20.83px;"
           id="rect66" /><rect
           x="2219.86"
           y="2807.41"
           width="491.951"
           height="44.408"
           style="fill:none;stroke:#000;stroke-width:20.83px;"
           id="rect68" /><path
           d="M2221.19,2892.55l-70.471,115.193c0,0 -5.421,13.552 13.552,25.749c18.973,12.197 218.19,116.548 218.19,116.548"
           style="fill:none;stroke:#000;stroke-width:20.83px;"
           id="path70" /><path
           d="M3435.8,8788.77c0,0 -406.96,-148.888 -241.529,-757.674c165.431,-608.786 1234.96,-4431.17 1234.96,-4431.17l122.19,-0l-86.247,314.086l167.138,-2.747"
           style="fill:none;stroke:#000;stroke-width:20.83px;"
           id="path72" /><path
           d="M5888.95,3602.37l446.714,-0c-0,-0 564.299,-41.754 848.423,571.666c6.184,13.428 19.617,22.031 34.4,22.031c162.938,0.017 396.445,0.017 465.485,0.017c11.014,-0 19.942,-8.929 19.942,-19.942l-0,-920.25l103.493,-0l149.099,-526.234"
           style="fill:none;stroke:#000;stroke-width:20.83px;"
           id="path74" /><rect
           x="7705.28"
           y="3256.02"
           width="733.733"
           height="767.131"
           style="fill:none;stroke:#000;stroke-width:20.83px;"
           id="rect76" /><path
           d="M6992.01,4531.09l1447.14,-0l0,-260.193l-1488.07,-0"
           style="fill:none;stroke:#000;stroke-width:20.83px;"
           id="path78" /><path
           d="M5482.06,3898.55l-998.67,0"
           style="fill:none;stroke:#000;stroke-width:41.67px;"
           id="path80" /><path
           d="M8418.32,4531.16l0,181.494l525.344,525.809l241.364,-0l28.066,-37.421l362.982,-0l16.839,33.679l127.231,-0l26.195,-34.266l362.745,0l26.823,38.29l122.621,-0l24.907,-42.151l359.105,-0l26.344,43.367l201.175,-0l31.134,-38.319l-0,-1001.72"
           style="fill:none;stroke:#000;stroke-width:62.5px;stroke-linecap:butt;"
           id="path82" /><path
           d="M10994.4,4200.17l-0,982.295l31.396,59.965l844.292,0l343.413,-375.165l-0,-879.213"
           style="fill:none;stroke:#000;stroke-width:62.5px;stroke-linecap:butt;"
           id="path84" /><path
           d="M12237.3,3996.64l-899.348,-903.997"
           style="fill:none;stroke:#000;stroke-width:20.83px;stroke-linecap:butt;"
           id="path86" /><path
           d="M12234.3,3993.38l-918.336,-0l253.781,106.76l539.641,-0l99.473,-106.76"
           style="fill:none;stroke:#000;stroke-width:20.83px;stroke-linecap:butt;"
           id="path88" /><path
           d="M12113.5,4100.13l-0,696.525l-235.502,259.45l-862.174,0"
           style="fill:none;stroke:#000;stroke-width:20.83px;stroke-linecap:butt;"
           id="path90" /><path
           d="M10886.2,5057.68l-1828.65,-0l-434.455,-424.886l-0,-1374.62l2882.14,-0"
           style="fill:none;stroke:#000;stroke-width:20.83px;stroke-linecap:butt;"
           id="path92" /><path
           d="M9060.28,5058.7l-102.183,153.275"
           style="fill:none;stroke:#000;stroke-width:20.83px;stroke-linecap:butt;"
           id="path94" /><path
           d="M8622.2,4631.87l-199.257,73.573"
           style="fill:none;stroke:#000;stroke-width:20.83px;stroke-linecap:butt;"
           id="path96" /><path
           d="M11877.6,5057.96l-17.563,172.434"
           style="fill:none;stroke:#000;stroke-width:20.83px;stroke-linecap:butt;"
           id="path98" /><path
           d="M12117,4790.68l80.469,72.806"
           style="fill:none;stroke:#000;stroke-width:20.83px;stroke-linecap:butt;"
           id="path100" /><path
           d="M10910.5,5187.53l85.578,0"
           style="fill:none;stroke:#000;stroke-width:20.83px;stroke-linecap:butt;"
           id="path102" /><path
           d="M11502.6,3249.48l902.089,-0"
           style="fill:none;stroke:#000;stroke-width:20.83px;stroke-linecap:butt;"
           id="path104" /><path
           d="M12383.1,2733.37l0,526.536"
           style="fill:none;stroke:#000;stroke-width:62.5px;stroke-linecap:butt;"
           id="path106" /><path
           d="M12395.5,3082.84l233.88,0l-0,1206.82l-221.406,-0"
           style="fill:none;stroke:#000;stroke-width:62.5px;stroke-linecap:butt;"
           id="path108" /><path
           d="M12226.3,4025.18l180.866,0l0,277.537l-49.894,243.234l-121.617,0"
           style="fill:none;stroke:#000;stroke-width:62.5px;stroke-linecap:butt;"
           id="path110" /><path
           d="M12231.4,4289.66l164.447,-0"
           style="fill:none;stroke:#000;stroke-width:20.83px;stroke-linecap:butt;"
           id="path112" /><path
           d="M10048,3745.07c0,-26.995 -10.723,-52.884 -29.812,-71.972c-19.088,-19.088 -44.977,-29.812 -71.972,-29.812l-1031.81,-0c-26.995,-0 -52.884,10.724 -71.972,29.812c-19.089,19.088 -29.812,44.977 -29.812,71.972l-0,281.404c-0,26.995 10.723,52.884 29.812,71.972c19.088,19.088 44.977,29.812 71.972,29.812c232.326,-0 799.488,-0 1031.81,-0c26.995,-0 52.884,-10.724 71.972,-29.812c19.089,-19.088 29.812,-44.977 29.812,-71.972c0,-82.679 0,-198.725 0,-281.404Z"
           style="fill:none;stroke:#000;stroke-width:20.83px;stroke-linecap:butt;"
           id="path114" /><path
           d="M9986.09,3831.88c0,-51.254 -41.549,-92.803 -92.803,-92.803l-922.045,-0c-51.254,-0 -92.804,41.549 -92.804,92.803l0,115.755c0,51.254 41.55,92.803 92.804,92.803l922.045,0c51.254,0 92.803,-41.549 92.803,-92.803l0,-115.755Z"
           style="fill:none;stroke:#000;stroke-width:20.83px;stroke-linecap:butt;"
           id="path116" /><path
           d="M9000.18,4128.26l0,191.594l512.913,-0l107.772,-193.59"
           style="fill:none;stroke:#000;stroke-width:20.83px;stroke-linecap:butt;"
           id="path118" /><g
           id="g134"><path
             d="M7066.23,2880.26l287.02,-0"
             style="fill:none;stroke:#000;stroke-width:16.67px;"
             id="path120" /><path
             d="M7066.23,2978.36l287.02,0"
             style="fill:none;stroke:#000;stroke-width:16.67px;"
             id="path122" /><path
             d="M7095.65,2830.31l227.981,-0"
             style="fill:none;stroke:#000;stroke-width:16.67px;"
             id="path124" /><path
             d="M7095.65,3028.32l227.981,0"
             style="fill:none;stroke:#000;stroke-width:16.67px;"
             id="path126" /><path
             d="M7147.91,2785.8l124.436,-0"
             style="fill:none;stroke:#000;stroke-width:16.67px;"
             id="path128" /><path
             d="M7059.16,2929.31l302.026,-0"
             style="fill:none;stroke:#000;stroke-width:16.67px;"
             id="path130" /><path
             d="M7147.91,3072.82l124.436,-0"
             style="fill:none;stroke:#000;stroke-width:16.67px;"
             id="path132" /></g></g><g
         id="Camada2"><path
           d="M2920,1361c0,0 50.93,-331.074 87,-331c64.505,0.132 179,0 179,0l66,165l529,0l117,149"
           style="fill:none;stroke:#000;stroke-width:62.5px;"
           id="path137" /></g><path
         d="M11552,1337.65c0,-0 -0.076,-263.706 427,23.353"
         style="fill:none;stroke:#000;stroke-width:23.75px;"
         id="path140" /><g
         id="Camada3"><g
           id="g148"><path
             d="M6998.36,3297.01c-118.667,-52.609 -201.889,-174.622 -201.889,-316.592c0,-15.129 0.945,-30.032 2.778,-44.648"
             style="fill:none;stroke:#000;stroke-width:23.75px;"
             id="path142" /><path
             d="M7093.08,3148.49c-74.499,-17.05 -130.294,-85.868 -130.294,-168.066c0,-14.515 1.74,-28.613 5.016,-42.082m-0,0l-167.881,-2.653"
             style="fill:none;stroke:#000;stroke-width:23.75px;"
             id="path144" /><path
             d="M7093.4,3148.75l-94.036,147.465"
             style="fill:none;stroke:#000;stroke-width:23.75px;"
             id="path146" /></g></g><g
         id="Camada4"><path
           d="M2799,2729c126.231,515.191 -119,565 -119,565l-559,-233c0,0 -95.659,161.403 -473,303c-90.538,86.341 -75.394,251.58 -31,265c44.394,13.42 841.91,-53.165 1003,634c161.09,687.165 -468.928,911.797 -822,1747c-353.072,835.203 -847.557,2349.5 -228,2497c679.025,161.658 1744,377 1744,377c0,0 187.855,-49.398 340,-350c45.252,-111.483 -125.678,-176.749 -46,-507c79.365,-328.955 1028.37,-4112.63 1028.37,-4112.63"
           style="fill:none;stroke:#000;stroke-width:62.5px;"
           id="path151" /><path
           d="M8594.26,3104l-157.139,-142.521l-0,-160.794l2835.81,0l0,226.573l78.264,78.264l-2756.93,-1.522Zm-157.139,-193.463l2835.81,-0"
           style="fill:none;stroke:#000;stroke-width:20.83px;"
           id="path153" /><path
           d="M8435.34,3253.29l160.91,-144.07"
           style="fill:none;stroke:#000;stroke-width:20.83px;"
           id="path155" /><path
           d="M8439.06,4014.95l0,284.398"
           style="fill:none;stroke:#000;stroke-width:20.83px;"
           id="path157" /><path
           d="M8508.13,2802.85l46.334,24.949l2636.79,0l37.562,-24.939l44.635,0l0,105.684l-80.366,-42.575l-2641.67,-0l-93.378,42.363l-20.665,0l-0,-105.624l70.76,0.142Z"
           style="fill:none;stroke:#000;stroke-width:8.33px;"
           id="path159" /><path
           d="M8553.74,2829.55l0,33.742"
           style="fill:none;stroke:#000;stroke-width:8.33px;"
           id="path161" /><path
           d="M11191.8,2828.65l-0,35.695"
           style="fill:none;stroke:#000;stroke-width:8.33px;"
           id="path163" /></g><g
         id="Camada10"><path
           d="M7705.28,3274.32c49.082,85.668 80.722,220.044 80.722,371.007c-0,150.963 -31.64,285.339 -80.722,371.007"
           style="fill:none;stroke:#000;stroke-width:20.83px;"
           id="path166" /></g><g
         id="Camada9" /><g
         id="Camada5"><path
           d="M1641,8531l95,432.596c0,0 1338.72,33.81 1437,22.46c55.242,-20.486 47.336,-75.49 70,-99.605"
           style="fill:none;stroke:#000;stroke-width:62.5px;"
           id="path170" /><path
           d="M4216,5606c0,0 184.64,-448.481 592.431,-353.463c407.791,95.018 734.53,208.261 1357.12,91.602l1514.43,-0c0,-0 6.549,-176.096 13.94,-374.835c15.241,-409.821 98.842,-413.736 721.87,-413.736"
           style="fill:none;stroke:#000;stroke-width:62.5px;"
           id="path172" /><path
           d="M12412,1669l210,0l0,1032l-210,0"
           style="fill:none;stroke:#000;stroke-width:62.5px;"
           id="path174" /></g><g
         id="Camada6"><path
           d="M2395,2185l-435,0c0,0 -42.966,-23.872 -162.116,174.441"
           style="fill:none;stroke:#000;stroke-width:62.5px;"
           id="path177" /><path
           d="M1797.88,2359.44c-51.5,85.719 -117.234,212.948 -199.884,401.559c-66.001,150.618 -104.471,262.982 -123.254,346.889"
           style="fill:none;stroke:#000;stroke-width:62.5px;stroke-linecap:butt;stroke-dasharray:62.5,62.5;"
           id="path179" /><path
           d="M1474.75,3107.89c-59.155,264.256 76.949,246.269 163.254,252.111"
           style="fill:none;stroke:#000;stroke-width:62.5px;"
           id="path181" /><path
           d="M1797.88,2386c-84.884,146 -271.884,560 -304.884,702.845"
           style="fill:none;stroke:#000;stroke-width:35.25px;"
           id="path183" /></g><g
         id="Logos"><g
           id="NAMCO"><path
             id="rect4393"
             d="M10165.4,1931.18c-60.093,0 -110.236,50.95 -110.236,112.01l0,195.668c0,61.059 50.143,112.009 110.236,112.009l349.004,0c60.093,0 110.236,-50.95 110.236,-112.009l0,-195.668c0,-61.06 -50.143,-112.01 -110.236,-112.01l-349.004,0Zm24.974,118.981l296.469,0l0,181.725l-296.469,0l-0,-181.725Z"
             style="fill:none;fill-rule:nonzero;stroke:#000;stroke-width:17.79px;stroke-linecap:butt;stroke-miterlimit:2;" /><path
             id="rect4348"
             d="M7537.28,1939.54l0,411.786l135.21,0l0,-292.805l255.262,0l0,292.805l132.622,0l0,-299.776c0,-61.06 -50.143,-112.01 -110.236,-112.01l-412.858,0Z"
             style="fill:none;fill-rule:nonzero;stroke:#000;stroke-width:17.79px;stroke-linecap:butt;stroke-miterlimit:2;" /><path
             id="path4359"
             d="M8151.86,1939.54l0,108.291l367.301,0l-0,29.281l-286.797,-0c-60.092,-0 -110.235,51.415 -110.235,112.474l-0,49.731c-0,61.059 50.143,112.009 110.235,112.009l419.446,0l-0,-299.776c-0,-61.06 -50.143,-112.01 -110.236,-112.01l-389.714,0Zm108.406,247.258l258.895,-0l-0,58.561l-258.895,-0l0,-58.561Z"
             style="fill:none;fill-rule:nonzero;stroke:#000;stroke-width:17.79px;stroke-linecap:butt;stroke-miterlimit:2;" /><path
             id="path4384"
             d="M8735.06,1939.54l-0,411.786l135.393,0l0,-292.805l139.053,0l-0,292.805l135.393,0l0,-292.805l141.798,0l-0,292.805l132.649,0l-0,-299.776c-0,-61.06 -50.144,-112.01 -110.236,-112.01l-574.05,0Z"
             style="fill:none;fill-rule:nonzero;stroke:#000;stroke-width:17.79px;stroke-linecap:butt;stroke-miterlimit:2;" /><path
             id="rect4389"
             d="M9608.25,1931.18c-60.093,0 -110.236,50.95 -110.236,112.01l0,195.668c0,61.059 50.143,112.009 110.236,112.009l370.503,0l-0,-118.981l-342.942,0l0,-181.725l342.942,0l-0,-118.981l-370.503,0Z"
             style="fill:none;fill-rule:nonzero;stroke:#000;stroke-width:17.79px;stroke-linecap:butt;stroke-miterlimit:2;" /></g><g
           id="g264"><g
             id="DuckStation-Logo"
             serif:id="DuckStation Logo"><path
               d="M2993.81,3728.12c0,14.99 -3.152,26.719 -9.457,35.184c-6.305,8.465 -16.859,12.698 -31.662,12.698l-75.659,-0l0,-185.445l75.659,0c14.803,0 25.357,4.277 31.662,12.831c6.305,8.553 9.457,20.678 9.457,36.374l0,88.358Zm-28.783,-88.358c-0,-12.874 -1.645,-21.648 -4.934,-26.322c-3.29,-4.673 -8.681,-7.01 -16.174,-7.01l-38.103,-0l-0,153.699l38.103,0c7.493,0 12.884,-2.645 16.174,-7.936c3.289,-5.291 4.934,-13.315 4.934,-24.073l-0,-88.358Z"
               style="fill:none;fill-rule:nonzero;stroke:#000;stroke-width:9.06px;stroke-linecap:butt;stroke-miterlimit:2;"
               id="path192" /><path
               d="M3105.11,3760.13l0,-130.948l27.961,-0l0,146.821l-73.74,-0c-8.224,-0 -14.985,-0.794 -20.285,-2.381c-5.3,-1.587 -9.549,-4.188 -12.747,-7.804c-3.198,-3.615 -5.391,-8.245 -6.579,-13.888c-1.188,-5.644 -1.782,-12.61 -1.782,-20.899l0,-101.849l27.961,-0l-0,102.907c-0,5.82 0.32,10.582 0.959,14.285c0.64,3.704 1.782,6.57 3.427,8.598c1.645,2.028 3.975,3.395 6.99,4.1c3.016,0.706 6.99,1.058 11.925,1.058l35.91,0Z"
               style="fill:none;fill-rule:nonzero;stroke:#000;stroke-width:9.06px;stroke-linecap:butt;stroke-miterlimit:2;"
               id="path194" /><path
               d="M3186.25,3732.09c0,5.82 0.32,10.582 0.96,14.285c0.639,3.704 1.782,6.57 3.426,8.598c1.645,2.028 3.975,3.395 6.991,4.1c3.015,0.706 6.99,1.058 11.924,1.058l43.312,0l-0,15.873l-53.18,-0c-8.224,-0 -14.986,-0.794 -20.286,-2.381c-5.299,-1.587 -9.548,-4.188 -12.747,-7.804c-3.198,-3.615 -5.391,-8.245 -6.579,-13.888c-1.187,-5.644 -1.781,-12.61 -1.781,-20.899l-0,-56.877c-0,-8.113 0.594,-15.035 1.781,-20.767c1.188,-5.731 3.381,-10.405 6.579,-14.02c3.199,-3.616 7.448,-6.217 12.747,-7.804c5.3,-1.588 12.062,-2.381 20.286,-2.381l53.18,-0l-0,15.872l-43.312,0c-4.934,0 -8.909,0.353 -11.924,1.058c-3.016,0.706 -5.346,2.073 -6.991,4.101c-1.644,2.028 -2.787,4.894 -3.426,8.597c-0.64,3.704 -0.96,8.466 -0.96,14.286l0,58.993Z"
               style="fill:none;fill-rule:nonzero;stroke:#000;stroke-width:9.06px;stroke-linecap:butt;stroke-miterlimit:2;"
               id="path196" /><path
               d="M3382.25,3776l-33.169,-0l-47.424,-81.744l0,81.744l-27.96,-0l-0,-190.735l27.96,-0l0,101.319l52.633,-57.405l21.381,-0l-48.52,53.437l55.099,93.384Z"
               style="fill:none;fill-rule:nonzero;stroke:#000;stroke-width:9.06px;stroke-linecap:butt;stroke-miterlimit:2;"
               id="path198" /><path
               d="M3501.77,3720.18c0,19.224 -3.381,33.333 -10.142,42.327c-6.762,8.995 -18.275,13.492 -34.54,13.492l-61.404,-0l-0,-15.873l55.921,0c3.838,0 7.265,-0.44 10.28,-1.322c3.015,-0.882 5.482,-2.646 7.401,-5.291c1.919,-2.646 3.381,-6.305 4.386,-10.979c1.005,-4.673 1.508,-10.802 1.508,-18.385c0,-6.526 -0.365,-11.861 -1.096,-16.005c-0.731,-4.145 -2.056,-7.319 -3.975,-9.524c-1.919,-2.204 -4.569,-3.703 -7.95,-4.497c-3.381,-0.794 -7.813,-1.19 -13.295,-1.19l-20.834,-0c-6.944,-0 -12.792,-0.882 -17.544,-2.646c-4.751,-1.764 -8.589,-4.629 -11.513,-8.598c-2.924,-3.968 -5.026,-9.17 -6.305,-15.608c-1.279,-6.437 -1.919,-14.417 -1.919,-23.941c0,-16.225 3.153,-28.879 9.458,-37.962c6.305,-9.082 17.224,-13.624 32.758,-13.624l53.454,0l0,15.873l-46.601,-0c-3.838,-0 -7.127,0.485 -9.869,1.455c-2.741,0.97 -5.071,2.645 -6.99,5.026c-1.919,2.381 -3.335,5.644 -4.249,9.788c-0.914,4.145 -1.371,9.392 -1.371,15.741c0,6.172 0.275,11.243 0.823,15.211c0.548,3.968 1.599,7.054 3.152,9.259c1.554,2.204 3.792,3.748 6.716,4.629c2.924,0.882 6.854,1.323 11.788,1.323l19.463,0c7.31,0 13.66,0.706 19.051,2.116c5.392,1.411 9.823,3.969 13.296,7.672c3.472,3.704 6.03,8.906 7.675,15.608c1.645,6.702 2.467,15.344 2.467,25.925Z"
               style="fill:none;fill-rule:nonzero;stroke:#000;stroke-width:9.06px;stroke-linecap:butt;stroke-miterlimit:2;"
               id="path200" /><path
               d="M3587.85,3645.05l-38.104,0l0,93.648c0,8.466 1.234,14.153 3.701,17.063c2.467,2.91 7.264,4.365 14.392,4.365l12.335,0l0,15.873l-23.575,-0c-6.579,-0 -12.107,-0.882 -16.584,-2.645c-4.478,-1.764 -8.041,-4.233 -10.691,-7.408c-2.65,-3.174 -4.569,-6.922 -5.757,-11.243c-1.188,-4.321 -1.782,-9.038 -1.782,-14.153l0,-149.996l27.961,0l0,38.624l38.104,-0l-0,15.872Z"
               style="fill:none;fill-rule:nonzero;stroke:#000;stroke-width:9.06px;stroke-linecap:butt;stroke-miterlimit:2;"
               id="path202" /><path
               d="M3658.84,3687.91l0,15.344l-11.787,-0c-4.934,-0 -8.909,0.352 -11.925,1.058c-3.015,0.705 -5.345,1.808 -6.99,3.307c-1.645,1.499 -2.787,3.483 -3.426,5.952c-0.64,2.469 -0.96,5.555 -0.96,9.259l0,16.931c0,4.056 0.32,7.363 0.96,9.92c0.639,2.557 1.781,4.629 3.426,6.217c1.645,1.587 3.975,2.689 6.99,3.307c3.016,0.617 6.991,0.925 11.925,0.925l30.976,0l0,-87.034c0,-5.82 -0.32,-10.582 -0.959,-14.286c-0.64,-3.703 -1.782,-6.569 -3.427,-8.597c-1.645,-2.028 -3.975,-3.395 -6.99,-4.101c-3.015,-0.705 -6.99,-1.058 -11.925,-1.058l-39.474,0l0,-15.872l49.343,-0c8.224,-0 14.986,0.793 20.285,2.381c5.3,1.587 9.549,4.188 12.747,7.804c3.198,3.615 5.391,8.289 6.579,14.02c1.188,5.732 1.782,12.654 1.782,20.767l-0,101.849l-68.806,-0c-8.223,-0 -14.985,-0.75 -20.285,-2.249c-5.3,-1.499 -9.549,-3.703 -12.747,-6.613c-3.198,-2.91 -5.391,-6.526 -6.579,-10.846c-1.188,-4.321 -1.782,-9.304 -1.782,-14.947l0,-18.783c0,-5.643 0.594,-10.625 1.782,-14.946c1.188,-4.321 3.381,-7.937 6.579,-10.847c3.198,-2.91 7.447,-5.114 12.747,-6.613c5.3,-1.499 12.062,-2.249 20.285,-2.249l21.656,0Z"
               style="fill:none;fill-rule:nonzero;stroke:#000;stroke-width:9.06px;stroke-linecap:butt;stroke-miterlimit:2;"
               id="path204" /><path
               d="M3797.28,3645.05l-38.104,0l0,93.648c0,8.466 1.234,14.153 3.701,17.063c2.467,2.91 7.264,4.365 14.392,4.365l12.335,0l0,15.873l-23.574,-0c-6.579,-0 -12.108,-0.882 -16.585,-2.645c-4.477,-1.764 -8.041,-4.233 -10.691,-7.408c-2.65,-3.174 -4.569,-6.922 -5.757,-11.243c-1.187,-4.321 -1.781,-9.038 -1.781,-14.153l-0,-149.996l27.96,0l0,38.624l38.104,-0l-0,15.872Z"
               style="fill:none;fill-rule:nonzero;stroke:#000;stroke-width:9.06px;stroke-linecap:butt;stroke-miterlimit:2;"
               id="path206" /><path
               d="M3842.78,3776l-27.961,-0l-0,-146.821l27.961,-0l-0,146.821Zm-0,-165.604l-27.961,0l-0,-25.396l27.961,-0l-0,25.396Z"
               style="fill:none;fill-rule:nonzero;stroke:#000;stroke-width:9.06px;stroke-linecap:butt;stroke-miterlimit:2;"
               id="path208" /><path
               d="M3946.68,3629.18c8.224,-0 14.986,0.793 20.286,2.381c5.3,1.587 9.549,4.188 12.747,7.804c3.198,3.615 5.391,8.289 6.579,14.02c1.188,5.732 1.781,12.654 1.781,20.767l0,56.877c0,8.289 -0.593,15.255 -1.781,20.899c-1.188,5.643 -3.381,10.273 -6.579,13.888c-3.198,3.616 -7.447,6.217 -12.747,7.804c-5.3,1.587 -12.062,2.381 -20.286,2.381l-36.732,-0c-8.224,-0 -14.986,-0.794 -20.286,-2.381c-5.299,-1.587 -9.548,-4.188 -12.747,-7.804c-3.198,-3.615 -5.391,-8.245 -6.579,-13.888c-1.187,-5.644 -1.781,-12.61 -1.781,-20.899l-0,-56.877c-0,-8.113 0.594,-15.035 1.781,-20.767c1.188,-5.731 3.381,-10.405 6.579,-14.02c3.199,-3.616 7.448,-6.217 12.747,-7.804c5.3,-1.588 12.062,-2.381 20.286,-2.381l36.732,-0Zm-50.165,102.907c0,5.82 0.32,10.582 0.96,14.285c0.64,3.704 1.782,6.57 3.426,8.598c1.645,2.028 3.975,3.395 6.991,4.1c3.015,0.706 6.99,1.058 11.924,1.058l16.996,0c4.934,0 8.909,-0.352 11.924,-1.058c3.016,-0.705 5.346,-2.072 6.991,-4.1c1.644,-2.028 2.787,-4.894 3.426,-8.598c0.64,-3.703 0.96,-8.465 0.96,-14.285l-0,-58.993c-0,-5.82 -0.32,-10.582 -0.96,-14.286c-0.639,-3.703 -1.782,-6.569 -3.426,-8.597c-1.645,-2.028 -3.975,-3.395 -6.991,-4.101c-3.015,-0.705 -6.99,-1.058 -11.924,-1.058l-16.996,0c-4.934,0 -8.909,0.353 -11.924,1.058c-3.016,0.706 -5.346,2.073 -6.991,4.101c-1.644,2.028 -2.786,4.894 -3.426,8.597c-0.64,3.704 -0.96,8.466 -0.96,14.286l0,58.993Z"
               style="fill:none;fill-rule:nonzero;stroke:#000;stroke-width:9.06px;stroke-linecap:butt;stroke-miterlimit:2;"
               id="path210" /><path
               d="M4041.25,3645.05l-0,130.949l-27.961,-0l0,-146.821l75.111,-0c8.223,-0 14.985,0.793 20.285,2.381c5.3,1.587 9.549,4.188 12.747,7.804c3.198,3.615 5.391,8.289 6.579,14.02c1.188,5.732 1.782,12.654 1.782,20.767l-0,101.849l-27.961,-0l-0,-102.907c-0,-5.82 -0.32,-10.582 -0.96,-14.286c-0.639,-3.703 -1.782,-6.569 -3.426,-8.597c-1.645,-2.028 -3.975,-3.395 -6.991,-4.101c-3.015,-0.705 -6.99,-1.058 -11.924,-1.058l-37.281,0Z"
               style="fill:none;fill-rule:nonzero;stroke:#000;stroke-width:9.06px;stroke-linecap:butt;stroke-miterlimit:2;"
               id="path212" /></g><g
             id="g262"><path
               d="M3593.98,3447.16l-30.47,18.478"
               style="fill:none;stroke:#000;stroke-width:8.33px;"
               id="path215" /><path
               d="M3563.51,3404.94l-0,25.575l30.47,16.643l0,36.588l-30.47,17.744"
               style="fill:none;stroke:#000;stroke-width:8.33px;"
               id="path217" /><path
               d="M3656.64,3350l-0,25.575l30.164,16.704"
               style="fill:none;stroke:#000;stroke-width:8.33px;"
               id="path219" /><path
               d="M3593.98,3387.69l0,24.29l62.042,35.182l30.776,-17.255l-0,-36.344l-31.143,18.417l-31.939,-19.151l0,-23.128"
               style="fill:none;stroke:#000;stroke-width:8.33px;"
               id="path221" /><path
               d="M3501.35,3384.02l-0,80.764l62.164,36.711l-0,-35.977l-31.939,-18.722l0,-44.421"
               style="fill:none;stroke:#000;stroke-width:8.33px;"
               id="path223" /><path
               d="M3437.04,3019.84l49.071,-28.451"
               style="fill:none;stroke:#000;stroke-width:8.33px;"
               id="path225" /><path
               d="M3390.05,2991.39l46.99,-26.983l49.071,26.983l-0,54.026"
               style="fill:none;stroke:#000;stroke-width:8.33px;"
               id="path227" /><path
               d="M3437.04,3073.87l0,-54.516l-46.99,-27.961l0,57.085l43.686,27.717"
               style="fill:none;stroke:#000;stroke-width:8.33px;"
               id="path229" /><path
               d="M3641.53,3256.81l42.952,-25.759"
               style="fill:none;stroke:#000;stroke-width:8.33px;"
               id="path231" /><path
               d="M3672.55,3194.04l-0,29.531l76.481,44.503l0,-29.614"
               style="fill:none;stroke:#000;stroke-width:8.33px;"
               id="path233" /><path
               d="M3749.58,3149.62l-77.032,44.849l76.848,43.992l76.115,-44.175l-75.931,-44.666Z"
               style="fill:none;stroke:#000;stroke-width:8.33px;"
               id="path235" /><path
               d="M3550.3,3411.98l169.238,-99.303l-0,-61.491"
               style="fill:none;stroke:#000;stroke-width:8.33px;"
               id="path237" /><path
               d="M3381.06,3107.89l129.835,-76.175"
               style="fill:none;stroke:#000;stroke-width:8.33px;"
               id="path239" /><path
               d="M3550.3,3204.95l-0,207.029l-169.238,-98.278l-0,-205.812l169.238,97.061Z"
               style="fill:none;stroke:#000;stroke-width:8.33px;"
               id="path241" /><path
               d="M3641.53,3097.3l130.63,-76.604"
               style="fill:none;stroke:#000;stroke-width:8.33px;"
               id="path243" /><g
               id="Camada21"
               serif:id="Camada2"><path
                 d="M3510.89,3181.74l-0,-161.284l130.63,-75.625l130.63,76.053l0,141.888"
                 style="fill:none;stroke:#000;stroke-width:8.33px;"
                 id="path245" /><path
                 d="M3510.89,3181.74l130.63,75.074l-0,-158.776l-130.63,-77.338"
                 style="fill:none;stroke:#000;stroke-width:8.33px;"
                 id="path247" /></g><path
               d="M3749.03,3268.07l76.482,-44.503l-0,-29.531"
               style="fill:none;stroke:#000;stroke-width:8.33px;"
               id="path250" /><path
               d="M3656.64,3411.8l-0,35.365"
               style="fill:none;stroke:#000;stroke-width:8.33px;"
               id="path252" /><path
               d="M3532.43,3447.16l31.082,-17.683"
               style="fill:none;stroke:#000;stroke-width:8.33px;"
               id="path254" /><path
               d="M3624.39,3392.58l32.245,-17.316"
               style="fill:none;stroke:#000;stroke-width:8.33px;"
               id="path256" /><path
               d="M3660.25,3150.17l-0,31.143l26.554,-14.99l-0,-31.388l-26.554,15.235Z"
               style="fill:none;stroke:#000;stroke-width:8.33px;"
               id="path258" /><path
               d="M3726.94,3112.78l0,31.143l26.555,-14.99l-0,-31.388l-26.555,15.235Z"
               style="fill:none;stroke:#000;stroke-width:8.33px;"
               id="path260" /></g></g></g><path
         d="M10366.8,3256.76c-0.362,0.417 -0.723,0.833 -1.084,1.25c-112.023,129.467 -179.792,298.279 -179.792,482.92c-0,396.964 313.923,721.187 706.846,737.742"
         style="fill:none;stroke:#000;stroke-width:20.83px;stroke-linecap:butt;"
         id="path267" /><path
         d="M11008.5,4474.59c241.356,-27.378 447.426,-171.112 560.759,-373.75"
         style="fill:none;stroke:#000;stroke-width:20.83px;stroke-linecap:butt;"
         id="path269" /><path
         d="M10916,3258.27c-262.908,-0 -476.037,213.129 -476.037,476.036c0,262.732 213.305,476.037 476.037,476.037c5.389,0 10.758,-0.089 16.104,-0.267"
         style="fill:none;stroke:#000;stroke-width:20.83px;stroke-linecap:butt;"
         id="path271" /><path
         d="M10963.8,4207.97c147.162,-14.675 274.589,-96.371 351.318,-214.124"
         style="fill:none;stroke:#000;stroke-width:20.83px;stroke-linecap:butt;"
         id="path273" /><g
         id="Camada8"><path
           d="M8441.95,3508.86l1586.23,0l98.419,-250.237l94.232,-150.771"
           style="fill:none;stroke:#000;stroke-width:23.75px;"
           id="path275" /></g></g><circle
       cx="10925.2"
       cy="3732.75"
       r="363.156"
       style="fill:#ba1b42;stroke:#63112e;stroke-width:20.83px;stroke-linecap:butt;"
       id="circle279" /></g></svg>
